<svg width="24" height="24" viewBox="0 0 24 24" fill="none" xmlns="http://www.w3.org/2000/svg">
<path d="M12 0.359009C5.57775 0.359009 0.375 5.35437 0.375 11.519C0.375 17.6836 5.5785 22.679 12 22.679C18.4222 22.679 23.625 17.6836 23.625 11.519C23.625 5.35437 18.4215 0.359009 12 0.359009ZM17.7098 8.00469L15.8018 16.636C15.6608 17.248 15.2812 17.3964 14.7518 17.1084L11.8455 15.052L10.4438 16.348C10.2893 16.4964 10.158 16.6224 9.858 16.6224L10.0642 13.7827L15.45 9.11133C15.6848 8.91333 15.3982 8.80101 15.0885 8.99901L8.43225 13.0216L5.5635 12.162C4.94025 11.9733 4.926 11.5636 5.69475 11.2756L16.9028 7.12629C17.4233 6.94629 17.8778 7.24797 17.709 8.00397L17.7098 8.00469Z" fill="white"/>
</svg>
