<svg width="24" height="24" viewBox="0 0 24 24" fill="none" xmlns="http://www.w3.org/2000/svg">
<g clip-path="url(#clip0)">
<path d="M-0.000728335 12.1347C-0.000728335 5.71087 5.23727 0.959595 11.9993 0.959595C18.7613 0.959595 23.9993 5.71087 23.9993 12.1347C23.9993 18.555 18.7613 23.3098 11.9993 23.3098C10.788 23.3098 9.62027 23.1558 8.53052 22.867C8.31758 22.8114 8.09111 22.8287 7.89002 22.916L5.49902 23.9247C5.35475 23.9862 5.19693 24.0127 5.03947 24.0018C4.88201 23.9909 4.72978 23.943 4.5962 23.8622C4.46262 23.7814 4.35182 23.6703 4.27356 23.5387C4.19531 23.4071 4.15203 23.259 4.14752 23.1075L4.07702 21.0526C4.0725 20.9291 4.04215 20.8077 3.98778 20.6956C3.9334 20.5836 3.85612 20.4831 3.76052 20.4003C2.55742 19.3586 1.59956 18.0826 0.950838 16.6574C0.302118 15.2323 -0.0225415 13.6906 -0.00147834 12.1354L-0.000728335 12.1347ZM8.31977 10.0309L4.80002 15.4086C4.44827 15.9147 5.12027 16.5037 5.62052 16.1286L9.40952 13.3724C9.53392 13.2793 9.68715 13.2287 9.8449 13.2287C10.0026 13.2287 10.1559 13.2793 10.2803 13.3724L13.077 15.3898C13.2764 15.5318 13.504 15.6329 13.7459 15.6867C13.9877 15.7405 14.2384 15.746 14.4825 15.7027C14.7266 15.6594 14.9588 15.5683 15.1646 15.435C15.3704 15.3018 15.5455 15.1293 15.6788 14.9283L19.1985 9.55063C19.5503 9.04447 18.8783 8.46703 18.378 8.83063L14.589 11.5868C14.4667 11.6798 14.3153 11.7304 14.1593 11.7304C14.0033 11.7304 13.8518 11.6798 13.7295 11.5868L10.929 9.56935C10.73 9.42489 10.5018 9.32177 10.2589 9.26656C10.0161 9.21135 9.76397 9.20525 9.51856 9.24866C9.27315 9.29207 9.03983 9.38403 8.83345 9.5187C8.62706 9.65336 8.45213 9.82779 8.31977 10.0309Z" fill="white"/>
</g>
<defs>
<clipPath id="clip0">
<rect width="24" height="23.04" fill="white" transform="translate(0 0.959595)"/>
</clipPath>
</defs>
</svg>
