<svg width="20" height="17" viewBox="0 0 20 17" fill="none" xmlns="http://www.w3.org/2000/svg">
<path d="M19.6 4.8474V13.3998C19.6 14.1955 19.284 14.9585 18.7213 15.5211C18.1587 16.0837 17.3957 16.3998 16.6 16.3998H3.40002C2.60437 16.3998 1.84131 16.0837 1.2787 15.5211C0.716095 14.9585 0.400024 14.1955 0.400024 13.3998V4.8474L9.69522 10.317C9.78757 10.3715 9.89282 10.4002 10 10.4002C10.1072 10.4002 10.2125 10.3715 10.3048 10.317L19.6 4.8474ZM16.6 0.799805C17.3382 0.799689 18.0505 1.07173 18.6007 1.56389C19.1508 2.05605 19.5002 2.73377 19.582 3.4674L10 9.10381L0.418025 3.4674C0.499814 2.73377 0.849213 2.05605 1.39938 1.56389C1.94954 1.07173 2.66185 0.799689 3.40002 0.799805H16.6Z" fill="#741FF2"/>
</svg>
