<svg width="24" height="24" viewBox="0 0 24 24" fill="none" xmlns="http://www.w3.org/2000/svg">
<path d="M-0.00054523 11.6407C-0.00054523 4.94925 5.23746 0 11.9995 0C18.7615 0 23.9995 4.94925 23.9995 11.6407C23.9995 18.3285 18.7615 23.2815 11.9995 23.2815C10.7882 23.2815 9.62045 23.121 8.5307 22.8202C8.31777 22.7623 8.09129 22.7803 7.8902 22.8713L5.49921 23.922C5.35494 23.9861 5.19711 24.0137 5.03965 24.0023C4.8822 23.991 4.72996 23.941 4.59638 23.8569C4.46281 23.7728 4.352 23.657 4.27375 23.5199C4.1955 23.3828 4.15221 23.2285 4.14771 23.0707L4.0772 20.9303C4.07268 20.8016 4.04233 20.6751 3.98796 20.5584C3.93359 20.4416 3.85631 20.337 3.7607 20.2507C2.55761 19.1657 1.59974 17.8365 0.951021 16.3519C0.302301 14.8674 -0.0223584 13.2615 -0.00129523 11.6415L-0.00054523 11.6407ZM8.31995 9.44925L4.8002 15.051C4.44845 15.5783 5.12045 16.1918 5.6207 15.801L9.40971 12.93C9.5341 12.833 9.68733 12.7803 9.84508 12.7803C10.0028 12.7803 10.1561 12.833 10.2805 12.93L13.0772 15.0315C13.2765 15.1794 13.5042 15.2847 13.746 15.3408C13.9878 15.3968 14.2386 15.4025 14.4827 15.3574C14.7268 15.3123 14.959 15.2174 15.1648 15.0786C15.3706 14.9398 15.5456 14.7601 15.679 14.5507L19.1987 8.949C19.5505 8.42175 18.8785 7.82025 18.3782 8.199L14.5892 11.07C14.4669 11.1669 14.3155 11.2195 14.1595 11.2195C14.0034 11.2195 13.852 11.1669 13.7297 11.07L10.9292 8.9685C10.7301 8.81801 10.5019 8.7106 10.2591 8.65309C10.0163 8.59558 9.76415 8.58923 9.51874 8.63445C9.27333 8.67966 9.04001 8.77546 8.83363 8.91573C8.62725 9.05601 8.45231 9.2377 8.31995 9.44925Z" fill="url(#paint0_linear)"/>
<defs>
<linearGradient id="paint0_linear" x1="11.9986" y1="0" x2="11.9986" y2="24.0048" gradientUnits="userSpaceOnUse">
<stop stop-color="#00C6FF"/>
<stop offset="1" stop-color="#0078FF"/>
</linearGradient>
</defs>
</svg>
