<svg width="23" height="24" viewBox="0 0 23 24" fill="none" xmlns="http://www.w3.org/2000/svg">
<path d="M20.19 2.33691C19.595 1.79191 17.185 0.0399056 11.818 0.0169056C11.818 0.0169056 5.48499 -0.362094 2.39999 2.46891C0.683991 4.18491 0.0829906 6.69791 0.0139906 9.81491C-0.0550094 12.9319 -0.13201 18.7739 5.49899 20.3619H5.50399L5.49899 22.7809C5.49899 22.7809 5.46199 23.7609 6.10599 23.9579C6.88399 24.2019 7.34399 23.4559 8.08899 22.6539C8.49699 22.2129 9.05899 21.5669 9.48599 21.0739C11.933 21.3006 14.4007 21.1122 16.785 20.5169L16.635 20.5489C17.413 20.2959 21.815 19.7329 22.527 13.8919C23.271 7.86191 22.173 4.05791 20.19 2.33691ZM20.842 13.4519C20.235 18.3269 16.669 18.6369 16.013 18.8469C14.581 19.2109 12.937 19.4189 11.244 19.4189C10.758 19.4189 10.276 19.4019 9.79899 19.3679L9.86299 19.3719C9.86299 19.3719 7.42499 22.3109 6.66599 23.0749C6.41799 23.3229 6.14499 23.3029 6.14999 22.8079C6.14999 22.4849 6.16899 18.7899 6.16899 18.7899C1.40199 17.4679 1.67799 12.4919 1.73399 9.89291C1.78999 7.29391 2.27799 5.15791 3.73099 3.72391C6.34299 1.35691 11.72 1.70791 11.72 1.70791C16.263 1.72691 18.438 3.09591 18.944 3.55491C20.618 4.98991 21.471 8.42191 20.842 13.4509V13.4519ZM14.331 9.66391V9.67791C14.3289 9.75578 14.297 9.82987 14.2418 9.88489C14.1867 9.93991 14.1125 9.97166 14.0346 9.97359C13.9567 9.97551 13.8811 9.94746 13.8233 9.89524C13.7655 9.84301 13.7299 9.77058 13.724 9.69291V9.69191C13.7443 9.48312 13.7192 9.2724 13.6502 9.0743C13.5812 8.87619 13.47 8.69541 13.3244 8.54444C13.1787 8.39347 13.0021 8.2759 12.8066 8.19984C12.6111 8.12378 12.4014 8.09105 12.192 8.10391H12.196C12.1183 8.09789 12.0458 8.06225 11.9937 8.00435C11.9415 7.94645 11.9135 7.87072 11.9156 7.7928C11.9176 7.71489 11.9495 7.64073 12.0047 7.58567C12.0599 7.5306 12.1341 7.49882 12.212 7.49691H12.229H12.228L12.297 7.49591C12.5762 7.49581 12.8524 7.55311 13.1085 7.66424C13.3646 7.77537 13.5952 7.93797 13.7858 8.14193C13.9764 8.34589 14.1231 8.58686 14.2167 8.84988C14.3104 9.1129 14.3489 9.39236 14.33 9.67091V9.66491L14.331 9.66391ZM15.282 10.1949C15.329 8.20691 14.087 6.65091 11.729 6.47691C11.6881 6.47563 11.6478 6.4661 11.6107 6.44889C11.5736 6.43168 11.5403 6.40715 11.5128 6.37677C11.4854 6.34638 11.4644 6.31077 11.4511 6.27207C11.4377 6.23337 11.4324 6.19237 11.4353 6.15154C11.4381 6.1107 11.4493 6.07088 11.4679 6.03445C11.4866 5.99801 11.5124 5.96573 11.5439 5.93952C11.5753 5.91331 11.6117 5.89373 11.6509 5.88194C11.6901 5.87015 11.7313 5.86639 11.772 5.87091H11.771H11.788C12.3476 5.87089 12.9013 5.98526 13.4151 6.20699C13.9289 6.42873 14.3919 6.75315 14.7758 7.16033C15.1597 7.56752 15.4562 8.04887 15.6473 8.57484C15.8384 9.1008 15.92 9.66028 15.887 10.2189L15.888 10.2079C15.8826 10.2854 15.8478 10.3579 15.7907 10.4106C15.7335 10.4632 15.6584 10.4919 15.5807 10.4909C15.503 10.4899 15.4287 10.4592 15.3729 10.405C15.3172 10.3509 15.2843 10.2775 15.281 10.1999V10.1919L15.282 10.1949ZM17.482 10.8239V10.8259C17.4779 10.9034 17.4444 10.9764 17.3882 11.03C17.3321 11.0836 17.2575 11.1137 17.1799 11.114C17.1023 11.1144 17.0275 11.0851 16.9708 11.0321C16.9141 10.9791 16.8798 10.9064 16.875 10.8289C16.851 7.00691 14.302 4.92591 11.213 4.90391C11.1732 4.90391 11.1338 4.89607 11.097 4.88084C11.0603 4.86561 11.0269 4.8433 10.9987 4.81516C10.9706 4.78702 10.9483 4.75362 10.9331 4.71686C10.9178 4.6801 10.91 4.6407 10.91 4.60091C10.91 4.56111 10.9178 4.52171 10.9331 4.48495C10.9483 4.44819 10.9706 4.41479 10.9987 4.38665C11.0269 4.35852 11.0603 4.3362 11.097 4.32097C11.1338 4.30574 11.1732 4.29791 11.213 4.29791C14.672 4.32191 17.452 6.70891 17.48 10.8229L17.482 10.8239ZM16.957 15.4219V15.4309C16.451 16.3219 15.504 17.3059 14.529 16.9919L14.52 16.9779C12.7817 16.3382 11.1522 15.4346 9.68899 14.2989L9.72999 14.3289C9.00187 13.7508 8.34135 13.0923 7.76099 12.3659L7.74199 12.3409C7.2165 11.6794 6.74752 10.9749 6.33999 10.2349L6.29999 10.1559C5.81784 9.36102 5.4181 8.51899 5.10699 7.64291L5.07699 7.54491C4.76299 6.56991 5.74199 5.62291 6.63799 5.11691H6.64699C6.82326 5.00407 7.03494 4.96015 7.24155 4.99354C7.44817 5.02693 7.63523 5.13529 7.76699 5.29791L7.76799 5.29991C7.76799 5.29991 8.34899 5.99291 8.59799 6.33591C8.83199 6.65491 9.14699 7.16591 9.30999 7.45091C9.43272 7.64565 9.48266 7.8775 9.45101 8.1055C9.41935 8.33349 9.30813 8.54297 9.13699 8.69691L9.13599 8.69791L8.57399 9.14791C8.48636 9.23248 8.41865 9.33549 8.37576 9.44947C8.33286 9.56345 8.31586 9.68554 8.32599 9.80691V9.80391C8.60427 10.7312 9.10651 11.5758 9.78841 12.2631C10.4703 12.9504 11.3109 13.4593 12.236 13.7449L12.278 13.7559C12.3988 13.7654 12.5202 13.7482 12.6335 13.7055C12.7469 13.6629 12.8495 13.5957 12.934 13.5089L13.384 12.9469C13.5386 12.775 13.7491 12.6635 13.9782 12.6322C14.2072 12.6009 14.4399 12.6518 14.635 12.7759L14.631 12.7739C15.444 13.2369 16.147 13.7459 16.788 14.3229L16.777 14.3129C16.9396 14.4426 17.0478 14.6284 17.0804 14.8338C17.113 15.0392 17.0675 15.2493 16.953 15.4229L16.955 15.4199L16.957 15.4219Z" fill="#665CAC"/>
</svg>
