<svg width="60" height="24" viewBox="0 0 60 24" fill="none" xmlns="http://www.w3.org/2000/svg">
<g clip-path="url(#clip0)">
<path d="M8.06252 3.97031L8.07152 3.92831L8.09552 3.75131L6.98552 3.74531C5.98352 3.73931 5.67602 3.74531 5.64902 3.77081C5.63552 3.78281 5.28902 5.09831 4.67252 7.48031C4.37852 8.61731 4.13102 9.52481 4.12202 9.49781C4.11302 9.47081 3.76202 8.17331 3.33902 6.61481C3.08576 5.66192 2.82375 4.71138 2.55302 3.76331C2.53802 3.74831 1.19402 3.74231 0.105021 3.75131C-0.0524793 3.75281 -0.140979 3.44381 1.51202 8.69981C1.74002 9.42731 2.08352 10.4578 2.27252 10.9888C2.49152 11.6008 2.64752 12.0748 2.75402 12.4693C2.94302 13.2208 2.94902 13.6918 2.90852 14.2423C2.86052 14.8768 2.85452 19.3618 2.90102 19.4368C2.93702 19.4938 5.03852 19.5208 5.23802 19.4668C5.26952 19.4578 5.29052 19.4278 5.30552 19.2583C5.35502 19.1128 5.35952 18.5323 5.35952 16.1233V13.0468L5.49452 12.6223C5.58302 12.3448 5.80352 11.6143 5.98652 10.9993L6.47702 9.36431C7.27052 6.77831 8.02652 4.23581 8.04752 4.09031L8.06402 3.97181L8.06252 3.97031Z" fill="black"/>
<path d="M19.8315 7.7024V7.8629H19.806L19.7925 12.2924L19.779 16.5869L19.4355 16.9364C19.05 17.3279 18.7425 17.4779 18.4635 17.4074C18.159 17.3309 18.168 17.4494 18.1425 12.3734L18.1185 7.7009H15.9075V7.8614H15.882V12.9314C15.882 18.3629 15.882 18.3599 16.158 18.9044C16.377 19.3394 16.698 19.5509 17.2455 19.6229C17.967 19.7189 18.7455 19.3919 19.467 18.6899L19.7805 18.3854V18.9119C19.7805 19.3664 19.794 19.4414 19.8765 19.4639C20.0115 19.5014 21.6855 19.5044 21.8655 19.4669L22.0155 19.4354V19.2794L22.041 19.2749V7.6709L19.833 7.7009L19.8315 7.7024Z" fill="black"/>
<path d="M14.2245 9.99144C14.0145 9.09294 13.623 8.48844 12.9765 8.07144C11.9625 7.41594 10.803 7.34544 9.72901 7.87644C8.94601 8.26344 8.44051 8.90544 8.18101 9.84744C8.14769 9.96073 8.1241 10.0766 8.11051 10.1939C8.04451 10.5269 8.03701 11.0219 8.01901 13.3334C7.99201 16.8944 8.03401 17.3174 8.47951 18.1259C8.91751 18.9194 9.82501 19.5014 10.8135 19.6214C11.1105 19.6574 11.7135 19.6019 12.0615 19.5044C12.849 19.2854 13.605 18.6629 13.9395 17.9564C14.0868 17.6736 14.1828 17.3668 14.223 17.0504C14.3205 16.5209 14.328 15.6629 14.328 13.4789C14.328 10.6934 14.319 10.3889 14.226 9.98994L14.2245 9.99144ZM11.703 17.2499C11.475 17.399 11.1973 17.4518 10.9305 17.3969C10.728 17.3534 10.4535 17.0354 10.3695 16.7459C10.2645 16.3844 10.257 11.3549 10.347 10.3694C10.497 9.87594 10.914 9.61794 11.37 9.74094C11.7255 9.83694 11.907 10.0589 12.0105 10.5254C12.087 10.8719 12.096 11.3024 12.0795 13.8359C12.069 15.5159 12.063 16.3379 12.0075 16.7789C11.952 17.0564 11.859 17.1314 11.703 17.2514V17.2499Z" fill="black"/>
<path d="M53.916 12.519H54.984L54.9675 11.5515C54.951 10.6635 54.9375 10.563 54.819 10.3215C54.6315 9.94196 54.3555 9.77246 53.9175 9.77246C53.391 9.77246 53.058 10.0275 52.9005 10.5495C52.833 10.7715 52.7625 12.3 52.8135 12.432C52.842 12.5055 52.995 12.519 53.916 12.519Z" fill="#C4302B"/>
<path d="M46.776 10.3183C46.7125 10.1849 46.6102 10.0738 46.4826 9.99939C46.355 9.92501 46.2079 9.89081 46.0605 9.90125C45.7814 9.92258 45.5155 10.0288 45.2985 10.2058L45.108 10.3513V17.3023L45.2985 17.4478C45.7305 17.7778 46.2045 17.8468 46.5315 17.6278C46.667 17.5321 46.7655 17.3929 46.8105 17.2333C46.896 16.9873 46.9035 16.6708 46.893 13.7458C46.881 10.6978 46.875 10.5178 46.776 10.3183Z" fill="#C4302B"/>
<path d="M60.021 7.18658C59.808 4.63508 59.6385 3.80708 59.1135 2.74358C58.416 1.33508 57.4095 0.592576 55.9755 0.429076C54.867 0.303076 50.694 0.124576 46.8345 0.0390757C40.1505 -0.109424 29.1615 0.177076 27.7575 0.535576C27.1309 0.689357 26.5615 1.01937 26.1165 1.48658C25.23 2.36858 24.7005 3.63458 24.489 5.38658C24.0045 9.38558 23.994 14.2156 24.4605 18.3601C24.6615 20.1421 25.0755 21.3001 25.8525 22.2541C26.337 22.8496 27.174 23.3551 27.921 23.5066C28.446 23.6131 31.071 23.7601 34.896 23.8966C35.466 23.9176 36.9735 23.9521 38.2485 23.9746C40.9035 24.0211 45.786 23.9941 48.5775 23.9161C50.4555 23.8636 53.8785 23.7241 54.519 23.6746C54.699 23.6611 55.116 23.6341 55.446 23.6161C56.5545 23.5531 57.2595 23.3221 57.921 22.8016C58.7775 22.1281 59.4405 20.8846 59.721 19.4251C59.9865 18.0451 60.1635 15.5866 60.1995 12.7951C60.2295 10.4626 60.189 9.20558 60.021 7.18358V7.18658ZM33.405 6.26258L32.163 6.27758L32.109 19.5226L31.032 19.5361C30.1995 19.5481 29.946 19.5346 29.9265 19.4821C29.9115 19.4446 29.895 16.4581 29.8875 12.8461L29.874 6.27758L27.4485 6.24758V4.17758L34.617 4.20608L34.647 6.24608L33.405 6.26108V6.26258ZM41.0205 13.8541V19.5496H39.0585V18.9496C39.0585 18.4981 39.042 18.3496 38.988 18.3496C38.949 18.3496 38.772 18.4981 38.5935 18.6796C38.205 19.0741 37.746 19.3906 37.353 19.5376C36.54 19.8421 35.769 19.6636 35.4405 19.0981C35.139 18.5806 35.1345 18.4636 35.1345 13.0906V8.15557H37.095L37.11 12.8026C37.125 17.3686 37.1265 17.4526 37.236 17.6386C37.3815 17.8846 37.602 17.9521 37.953 17.8546C38.16 17.7976 38.301 17.6971 38.6355 17.3641L39.0585 16.9441V8.15557H41.0205V13.8511V13.8541ZM48.6735 18.7366C48.501 19.1221 48.1155 19.4986 47.799 19.5916C46.9755 19.8346 46.314 19.6366 45.5505 18.9181C45.3135 18.6946 45.093 18.5146 45.06 18.5146C45.0195 18.5146 44.9985 18.6886 44.9985 19.0321V19.5496H43.0365V4.17758H44.9985V6.68558C44.9985 8.06408 45.0165 9.19358 45.039 9.19358C45.0615 9.19358 45.2685 9.01058 45.4995 8.78858C46.0305 8.27708 46.473 8.05208 47.0355 8.01008C48.039 7.93358 48.6375 8.45108 48.9105 9.63008C48.996 9.99758 49.0035 10.4176 49.0035 13.8271C49.0035 17.9791 49.0035 17.9971 48.672 18.7366H48.6735ZM56.976 16.4566C56.9658 16.8225 56.9272 17.1871 56.8605 17.5471C56.5875 18.5581 55.8615 19.2751 54.8115 19.5691C53.3985 19.9651 51.8415 19.3171 51.2205 18.0736C50.8725 17.3761 50.859 17.2366 50.859 13.8271C50.859 11.0476 50.8695 10.7056 50.958 10.3261C51.21 9.25358 51.834 8.55908 52.8915 8.17358C53.1975 8.06258 53.517 8.00408 53.8365 7.99808C54.978 7.97407 56.109 8.58758 56.5845 9.58658C56.904 10.2601 56.9445 10.5496 56.976 12.4486L57.0045 14.1526L52.821 14.1811L52.806 15.3256C52.7835 16.9411 52.893 17.4376 53.3295 17.7301C53.6955 17.9776 54.2595 17.9581 54.5655 17.6896C54.8535 17.4376 54.9345 17.1661 54.963 16.3741L54.9885 15.6796H57.009L56.976 16.4566Z" fill="#C4302B"/>
</g>
<defs>
<clipPath id="clip0">
<rect width="60" height="24" fill="white"/>
</clipPath>
</defs>
</svg>
