<svg width="23" height="20" viewBox="0 0 23 20" fill="none" xmlns="http://www.w3.org/2000/svg">
<g filter="url(#filter0_f)">
<path d="M1 5C1 3.89543 1.89543 3 3 3H15C16.1046 3 17 3.89543 17 5V17C17 18.1046 16.1046 19 15 19H3C1.89543 19 1 18.1046 1 17V5Z" fill="white"/>
<path d="M3 3.5H15C15.8284 3.5 16.5 4.17157 16.5 5V17C16.5 17.8284 15.8284 18.5 15 18.5H3C2.17157 18.5 1.5 17.8284 1.5 17V5C1.5 4.17157 2.17157 3.5 3 3.5Z" stroke="#330774"/>
</g>
<line x1="3.9908" y1="10.5624" x2="7.9908" y2="14.5624" stroke="#330873" stroke-width="2"/>
<line x1="21.7071" y1="0.707107" x2="7.21079" y2="15.2034" stroke="#330873" stroke-width="2"/>
<defs>
<filter id="filter0_f" x="0" y="2" width="18" height="18" filterUnits="userSpaceOnUse" color-interpolation-filters="sRGB">
<feFlood flood-opacity="0" result="BackgroundImageFix"/>
<feBlend mode="normal" in="SourceGraphic" in2="BackgroundImageFix" result="shape"/>
<feGaussianBlur stdDeviation="0.5" result="effect1_foregroundBlur"/>
</filter>
</defs>
</svg>
