<svg width="60" height="24" viewBox="0 0 60 24" fill="none" xmlns="http://www.w3.org/2000/svg">
<g clip-path="url(#clip0)">
<path d="M8.06246 3.97049L8.07146 3.92849L8.09546 3.75149L6.98546 3.74549C5.98346 3.73949 5.67596 3.74549 5.64896 3.77099C5.63546 3.78299 5.28896 5.09849 4.67246 7.48049C4.37846 8.61749 4.13096 9.52499 4.12196 9.49799C4.11296 9.47099 3.76196 8.17349 3.33896 6.61499C3.0857 5.6621 2.82369 4.71156 2.55296 3.76349C2.53796 3.74849 1.19396 3.74249 0.10496 3.75149C-0.0525404 3.75299 -0.14104 3.44399 1.51196 8.69999C1.73996 9.42749 2.08346 10.458 2.27246 10.989C2.49146 11.601 2.64746 12.075 2.75396 12.4695C2.94296 13.221 2.94896 13.692 2.90846 14.2425C2.86046 14.877 2.85446 19.362 2.90096 19.437C2.93696 19.494 5.03846 19.521 5.23796 19.467C5.26946 19.458 5.29046 19.428 5.30546 19.2585C5.35496 19.113 5.35946 18.5325 5.35946 16.1235V13.047L5.49446 12.6225C5.58296 12.345 5.80346 11.6145 5.98646 10.9995L6.47696 9.36449C7.27046 6.77849 8.02646 4.23599 8.04746 4.09049L8.06396 3.97199L8.06246 3.97049Z" fill="black"/>
<path d="M19.8313 7.70252V7.86302H19.8058L19.7923 12.2925L19.7788 16.587L19.4353 16.9365C19.0498 17.328 18.7423 17.478 18.4633 17.4075C18.1588 17.331 18.1678 17.4495 18.1423 12.3735L18.1183 7.70102H15.9073V7.86152H15.8818V12.9315C15.8818 18.363 15.8818 18.36 16.1578 18.9045C16.3768 19.3395 16.6978 19.551 17.2453 19.623C17.9668 19.719 18.7453 19.392 19.4668 18.69L19.7803 18.3855V18.912C19.7803 19.3665 19.7938 19.4415 19.8763 19.464C20.0113 19.5015 21.6853 19.5045 21.8653 19.467L22.0153 19.4355V19.2795L22.0408 19.275V7.67102L19.8328 7.70102L19.8313 7.70252Z" fill="black"/>
<path d="M14.2246 9.9915C14.0146 9.093 13.6231 8.4885 12.9766 8.0715C11.9626 7.416 10.8031 7.3455 9.72907 7.8765C8.94607 8.2635 8.44057 8.9055 8.18107 9.8475C8.14775 9.96079 8.12416 10.0767 8.11057 10.194C8.04457 10.527 8.03707 11.022 8.01907 13.3335C7.99207 16.8945 8.03407 17.3175 8.47957 18.126C8.91757 18.9195 9.82507 19.5015 10.8136 19.6215C11.1106 19.6575 11.7136 19.602 12.0616 19.5045C12.8491 19.2855 13.6051 18.663 13.9396 17.9565C14.0868 17.6736 14.1828 17.3669 14.2231 17.0505C14.3206 16.521 14.3281 15.663 14.3281 13.479C14.3281 10.6935 14.3191 10.389 14.2261 9.99L14.2246 9.9915ZM11.7031 17.25C11.4751 17.399 11.1974 17.4519 10.9306 17.397C10.7281 17.3535 10.4536 17.0355 10.3696 16.746C10.2646 16.3845 10.2571 11.355 10.3471 10.3695C10.4971 9.876 10.9141 9.618 11.3701 9.741C11.7256 9.837 11.9071 10.059 12.0106 10.5255C12.0871 10.872 12.0961 11.3025 12.0796 13.836C12.0691 15.516 12.0631 16.338 12.0076 16.779C11.9521 17.0565 11.8591 17.1315 11.7031 17.2515V17.25Z" fill="black"/>
<path d="M53.9158 12.519H54.9838L54.9673 11.5515C54.9508 10.6635 54.9373 10.563 54.8188 10.3215C54.6313 9.94202 54.3553 9.77252 53.9173 9.77252C53.3908 9.77252 53.0578 10.0275 52.9003 10.5495C52.8328 10.7715 52.7623 12.3 52.8133 12.432C52.8418 12.5055 52.9948 12.519 53.9158 12.519Z" fill="#C4302B"/>
<path d="M46.7759 10.3185C46.7124 10.1851 46.6101 10.074 46.4825 9.99964C46.3548 9.92525 46.2078 9.89105 46.0604 9.9015C45.7813 9.92282 45.5154 10.0291 45.2984 10.206L45.1079 10.3515V17.3025L45.2984 17.448C45.7304 17.778 46.2044 17.847 46.5314 17.628C46.6669 17.5324 46.7654 17.3931 46.8104 17.2335C46.8959 16.9875 46.9034 16.671 46.8929 13.746C46.8809 10.698 46.8749 10.518 46.7759 10.3185Z" fill="#C4302B"/>
<path d="M60.0212 7.18651C59.8082 4.63501 59.6387 3.80701 59.1137 2.74351C58.4162 1.33501 57.4097 0.592515 55.9757 0.429015C54.8672 0.303015 50.6942 0.124515 46.8347 0.0390147C40.1507 -0.109485 29.1617 0.177015 27.7577 0.535515C27.1311 0.689296 26.5616 1.01931 26.1167 1.48651C25.2302 2.36851 24.7007 3.63451 24.4892 5.38651C24.0047 9.38551 23.9942 14.2155 24.4607 18.36C24.6617 20.142 25.0757 21.3 25.8527 22.254C26.3372 22.8495 27.1742 23.355 27.9212 23.5065C28.4462 23.613 31.0712 23.76 34.8962 23.8965C35.4662 23.9175 36.9737 23.952 38.2487 23.9745C40.9037 24.021 45.7862 23.994 48.5777 23.916C50.4557 23.8635 53.8787 23.724 54.5192 23.6745C54.6992 23.661 55.1162 23.634 55.4462 23.616C56.5547 23.553 57.2597 23.322 57.9212 22.8015C58.7777 22.128 59.4407 20.8845 59.7212 19.425C59.9867 18.045 60.1637 15.5865 60.1997 12.795C60.2297 10.4625 60.1892 9.20551 60.0212 7.18351V7.18651ZM33.4052 6.26251L32.1632 6.27751L32.1092 19.5225L31.0322 19.536C30.1997 19.548 29.9462 19.5345 29.9267 19.482C29.9117 19.4445 29.8952 16.458 29.8877 12.846L29.8742 6.27751L27.4487 6.24751V4.17751L34.6172 4.20601L34.6472 6.24601L33.4052 6.26101V6.26251ZM41.0207 13.854V19.5495H39.0587V18.9495C39.0587 18.498 39.0422 18.3495 38.9882 18.3495C38.9492 18.3495 38.7722 18.498 38.5937 18.6795C38.2052 19.074 37.7462 19.3905 37.3532 19.5375C36.5402 19.842 35.7692 19.6635 35.4407 19.098C35.1392 18.5805 35.1347 18.4635 35.1347 13.0905V8.15551H37.0952L37.1102 12.8025C37.1252 17.3685 37.1267 17.4525 37.2362 17.6385C37.3817 17.8845 37.6022 17.952 37.9532 17.8545C38.1602 17.7975 38.3012 17.697 38.6357 17.364L39.0587 16.944V8.15551H41.0207V13.851V13.854ZM48.6737 18.7365C48.5012 19.122 48.1157 19.4985 47.7992 19.5915C46.9757 19.8345 46.3142 19.6365 45.5507 18.918C45.3137 18.6945 45.0932 18.5145 45.0602 18.5145C45.0197 18.5145 44.9987 18.6885 44.9987 19.032V19.5495H43.0367V4.17751H44.9987V6.68551C44.9987 8.06401 45.0167 9.19351 45.0392 9.19351C45.0617 9.19351 45.2687 9.01052 45.4997 8.78852C46.0307 8.27701 46.4732 8.05201 47.0357 8.01001C48.0392 7.93351 48.6377 8.45101 48.9107 9.63001C48.9962 9.99751 49.0037 10.4175 49.0037 13.827C49.0037 17.979 49.0037 17.997 48.6722 18.7365H48.6737ZM56.9762 16.4565C56.966 16.8225 56.9274 17.1871 56.8607 17.547C56.5877 18.558 55.8617 19.275 54.8117 19.569C53.3987 19.965 51.8417 19.317 51.2207 18.0735C50.8727 17.376 50.8592 17.2365 50.8592 13.827C50.8592 11.0475 50.8697 10.7055 50.9582 10.326C51.2102 9.25351 51.8342 8.55901 52.8917 8.17351C53.1977 8.06251 53.5172 8.00401 53.8367 7.99801C54.9782 7.97401 56.1092 8.58751 56.5847 9.58651C56.9042 10.26 56.9447 10.5495 56.9762 12.4485L57.0047 14.1525L52.8212 14.181L52.8062 15.3255C52.7837 16.941 52.8932 17.4375 53.3297 17.73C53.6957 17.9775 54.2597 17.958 54.5657 17.6895C54.8537 17.4375 54.9347 17.166 54.9632 16.374L54.9887 15.6795H57.0092L56.9762 16.4565Z" fill="#C4302B"/>
</g>
<defs>
<clipPath id="clip0">
<rect width="60" height="24" fill="white"/>
</clipPath>
</defs>
</svg>
