<svg width="24" height="24" viewBox="0 0 24 24" fill="none" xmlns="http://www.w3.org/2000/svg">
<g clip-path="url(#clip0)">
<path d="M-0.000728335 11.6407C-0.000728335 4.94925 5.23727 0 11.9993 0C18.7613 0 23.9993 4.94925 23.9993 11.6407C23.9993 18.3285 18.7613 23.2815 11.9993 23.2815C10.788 23.2815 9.62027 23.121 8.53052 22.8202C8.31758 22.7623 8.09111 22.7803 7.89002 22.8713L5.49902 23.922C5.35475 23.9861 5.19693 24.0137 5.03947 24.0023C4.88201 23.991 4.72978 23.941 4.5962 23.8569C4.46262 23.7728 4.35182 23.657 4.27356 23.5199C4.19531 23.3828 4.15203 23.2285 4.14752 23.0707L4.07702 20.9303C4.0725 20.8016 4.04215 20.6751 3.98778 20.5584C3.9334 20.4416 3.85612 20.337 3.76052 20.2507C2.55742 19.1657 1.59956 17.8365 0.950838 16.3519C0.302118 14.8674 -0.0225415 13.2615 -0.00147834 11.6415L-0.000728335 11.6407ZM8.31977 9.44925L4.80002 15.051C4.44827 15.5783 5.12027 16.1918 5.62052 15.801L9.40952 12.93C9.53392 12.833 9.68715 12.7803 9.8449 12.7803C10.0026 12.7803 10.1559 12.833 10.2803 12.93L13.077 15.0315C13.2764 15.1794 13.504 15.2847 13.7459 15.3408C13.9877 15.3968 14.2384 15.4025 14.4825 15.3574C14.7266 15.3123 14.9588 15.2174 15.1646 15.0786C15.3704 14.9398 15.5455 14.7601 15.6788 14.5507L19.1985 8.949C19.5503 8.42175 18.8783 7.82025 18.378 8.199L14.589 11.07C14.4667 11.1669 14.3153 11.2195 14.1593 11.2195C14.0033 11.2195 13.8518 11.1669 13.7295 11.07L10.929 8.9685C10.73 8.81801 10.5018 8.7106 10.2589 8.65309C10.0161 8.59558 9.76397 8.58923 9.51856 8.63445C9.27315 8.67966 9.03983 8.77546 8.83345 8.91573C8.62706 9.05601 8.45213 9.2377 8.31977 9.44925Z" fill="url(#paint0_linear)"/>
</g>
<defs>
<linearGradient id="paint0_linear" x1="11.9984" y1="0" x2="11.9984" y2="24.0048" gradientUnits="userSpaceOnUse">
<stop stop-color="#00C6FF"/>
<stop offset="1" stop-color="#0078FF"/>
</linearGradient>
<clipPath id="clip0">
<rect width="24" height="24" fill="white"/>
</clipPath>
</defs>
</svg>
