<svg width="23" height="24" viewBox="0 0 23 24" fill="none" xmlns="http://www.w3.org/2000/svg">
<g clip-path="url(#clip0)">
<path d="M20.19 2.33703C19.595 1.79203 17.185 0.0400277 11.818 0.0170277C11.818 0.0170277 5.48499 -0.361972 2.39999 2.46903C0.683991 4.18503 0.0829906 6.69803 0.0139906 9.81503C-0.0550094 12.932 -0.13201 18.774 5.49899 20.362H5.50399L5.49899 22.781C5.49899 22.781 5.46199 23.761 6.10599 23.958C6.88399 24.202 7.34399 23.456 8.08899 22.654C8.49699 22.213 9.05899 21.567 9.48599 21.074C11.933 21.3007 14.4007 21.1124 16.785 20.517L16.635 20.549C17.413 20.296 21.815 19.733 22.527 13.892C23.271 7.86203 22.173 4.05803 20.19 2.33703ZM20.842 13.452C20.235 18.327 16.669 18.637 16.013 18.847C14.581 19.211 12.937 19.419 11.244 19.419C10.758 19.419 10.276 19.402 9.79899 19.368L9.86299 19.372C9.86299 19.372 7.42499 22.311 6.66599 23.075C6.41799 23.323 6.14499 23.303 6.14999 22.808C6.14999 22.485 6.16899 18.79 6.16899 18.79C1.40199 17.468 1.67799 12.492 1.73399 9.89303C1.78999 7.29403 2.27799 5.15803 3.73099 3.72403C6.34299 1.35703 11.72 1.70803 11.72 1.70803C16.263 1.72703 18.438 3.09603 18.944 3.55503C20.618 4.99003 21.471 8.42203 20.842 13.451V13.452ZM14.331 9.66403V9.67803C14.3289 9.7559 14.297 9.82999 14.2418 9.88501C14.1867 9.94003 14.1125 9.97178 14.0346 9.97371C13.9567 9.97563 13.8811 9.94759 13.8233 9.89536C13.7655 9.84313 13.7299 9.7707 13.724 9.69303V9.69203C13.7443 9.48324 13.7192 9.27252 13.6502 9.07442C13.5812 8.87631 13.47 8.69554 13.3244 8.54456C13.1787 8.39359 13.0021 8.27602 12.8066 8.19996C12.6111 8.12391 12.4014 8.09117 12.192 8.10403H12.196C12.1183 8.09801 12.0458 8.06237 11.9937 8.00447C11.9415 7.94657 11.9135 7.87084 11.9156 7.79293C11.9176 7.71501 11.9495 7.64085 12.0047 7.58579C12.0599 7.53072 12.1341 7.49895 12.212 7.49703H12.229H12.228L12.297 7.49603C12.5762 7.49593 12.8524 7.55323 13.1085 7.66436C13.3646 7.7755 13.5952 7.93809 13.7858 8.14205C13.9764 8.34601 14.1231 8.58698 14.2167 8.85C14.3104 9.11302 14.3489 9.39248 14.33 9.67103V9.66503L14.331 9.66403ZM15.282 10.195C15.329 8.20703 14.087 6.65103 11.729 6.47703C11.6881 6.47575 11.6478 6.46622 11.6107 6.44901C11.5736 6.4318 11.5403 6.40727 11.5128 6.37689C11.4854 6.3465 11.4644 6.31089 11.4511 6.27219C11.4377 6.23349 11.4324 6.19249 11.4353 6.15166C11.4381 6.11083 11.4493 6.071 11.4679 6.03457C11.4866 5.99814 11.5124 5.96585 11.5439 5.93964C11.5753 5.91344 11.6117 5.89385 11.6509 5.88206C11.6901 5.87027 11.7313 5.86652 11.772 5.87103H11.771H11.788C12.3476 5.87101 12.9013 5.98538 13.4151 6.20711C13.9289 6.42885 14.3919 6.75327 14.7758 7.16046C15.1597 7.56764 15.4562 8.049 15.6473 8.57496C15.8384 9.10093 15.92 9.6604 15.887 10.219L15.888 10.208C15.8826 10.2855 15.8478 10.358 15.7907 10.4107C15.7335 10.4633 15.6584 10.4921 15.5807 10.491C15.503 10.49 15.4287 10.4593 15.3729 10.4052C15.3172 10.3511 15.2843 10.2776 15.281 10.2V10.192L15.282 10.195ZM17.482 10.824V10.826C17.4779 10.9035 17.4444 10.9766 17.3882 11.0301C17.3321 11.0837 17.2575 11.1138 17.1799 11.1142C17.1023 11.1145 17.0275 11.0852 16.9708 11.0322C16.9141 10.9792 16.8798 10.9065 16.875 10.829C16.851 7.00703 14.302 4.92603 11.213 4.90403C11.1732 4.90403 11.1338 4.89619 11.097 4.88096C11.0603 4.86574 11.0269 4.84342 10.9987 4.81528C10.9706 4.78714 10.9483 4.75374 10.9331 4.71698C10.9178 4.68022 10.91 4.64082 10.91 4.60103C10.91 4.56124 10.9178 4.52184 10.9331 4.48507C10.9483 4.44831 10.9706 4.41491 10.9987 4.38677C11.0269 4.35864 11.0603 4.33632 11.097 4.32109C11.1338 4.30586 11.1732 4.29803 11.213 4.29803C14.672 4.32203 17.452 6.70903 17.48 10.823L17.482 10.824ZM16.957 15.422V15.431C16.451 16.322 15.504 17.306 14.529 16.992L14.52 16.978C12.7817 16.3383 11.1522 15.4347 9.68899 14.299L9.72999 14.329C9.00187 13.7509 8.34135 13.0924 7.76099 12.366L7.74199 12.341C7.2165 11.6795 6.74752 10.9751 6.33999 10.235L6.29999 10.156C5.81784 9.36114 5.4181 8.51911 5.10699 7.64303L5.07699 7.54503C4.76299 6.57003 5.74199 5.62303 6.63799 5.11703H6.64699C6.82326 5.00419 7.03494 4.96027 7.24155 4.99366C7.44817 5.02705 7.63523 5.13541 7.76699 5.29803L7.76799 5.30003C7.76799 5.30003 8.34899 5.99303 8.59799 6.33603C8.83199 6.65503 9.14699 7.16603 9.30999 7.45103C9.43272 7.64577 9.48266 7.87762 9.45101 8.10562C9.41935 8.33362 9.30813 8.54309 9.13699 8.69703L9.13599 8.69803L8.57399 9.14803C8.48636 9.2326 8.41865 9.33561 8.37576 9.44959C8.33286 9.56357 8.31586 9.68567 8.32599 9.80703V9.80403C8.60427 10.7314 9.10651 11.5759 9.78841 12.2632C10.4703 12.9505 11.3109 13.4594 12.236 13.745L12.278 13.756C12.3988 13.7655 12.5202 13.7484 12.6335 13.7057C12.7469 13.663 12.8495 13.5958 12.934 13.509L13.384 12.947C13.5386 12.7751 13.7491 12.6636 13.9782 12.6323C14.2072 12.601 14.4399 12.6519 14.635 12.776L14.631 12.774C15.444 13.237 16.147 13.746 16.788 14.323L16.777 14.313C16.9396 14.4427 17.0478 14.6285 17.0804 14.8339C17.113 15.0393 17.0675 15.2494 16.953 15.423L16.955 15.42L16.957 15.422Z" fill="#665CAC"/>
</g>
<defs>
<clipPath id="clip0">
<rect width="23" height="24" fill="white"/>
</clipPath>
</defs>
</svg>
