<svg width="88" height="24" viewBox="0 0 88 24" fill="none" xmlns="http://www.w3.org/2000/svg">
<path d="M11.0266 5.09694C11.2685 4.069 12.7315 4.069 12.9734 5.09694L13.4389 7.07525C13.5945 7.73645 14.3499 8.05348 14.9307 7.70135L16.6967 6.63079C17.6082 6.07822 18.6363 7.14495 18.0506 8.03548L17.0358 9.57816C16.6499 10.1649 16.973 10.9562 17.6593 11.105L19.4932 11.5027C20.544 11.7305 20.544 13.2294 19.4932 13.4572L17.6593 13.8549C16.973 14.0038 16.6499 14.7951 17.0358 15.3818L18.0506 16.9244C18.6363 17.815 17.6082 18.8817 16.6967 18.3291L14.9307 17.2586C14.3499 16.9064 13.5945 17.2235 13.4389 17.8847L12.9734 19.863C12.7315 20.8909 11.2685 20.8909 11.0266 19.863L10.5611 17.8847C10.4055 17.2235 9.65013 16.9064 9.06928 17.2586L7.3033 18.3291C6.39179 18.8817 5.36366 17.815 5.94944 16.9244L6.96419 15.3818C7.35012 14.7951 7.02696 14.0038 6.34066 13.8549L4.50675 13.4572C3.45599 13.2294 3.45598 11.7305 4.50675 11.5027L6.34066 11.105C7.02696 10.9562 7.35012 10.1649 6.96419 9.57815L5.94944 8.03548C5.36366 7.14495 6.39179 6.07822 7.3033 6.63079L9.06928 7.70135C9.65013 8.05348 10.4055 7.73645 10.5611 7.07526L11.0266 5.09694Z" fill="#904CF5"/>
<path d="M43.0266 4.13698C43.2685 3.10904 44.7315 3.10904 44.9734 4.13698L45.4389 6.11529C45.5945 6.77649 46.3499 7.09352 46.9307 6.74139L48.6967 5.67083C49.6082 5.11825 50.6363 6.18499 50.0506 7.07552L49.0358 8.61819C48.6499 9.2049 48.973 9.99621 49.6593 10.145L51.4932 10.5427C52.544 10.7706 52.544 12.2694 51.4932 12.4973L49.6593 12.895C48.973 13.0438 48.6499 13.8351 49.0358 14.4218L50.0506 15.9645C50.6363 16.855 49.6082 17.9217 48.6967 17.3692L46.9307 16.2986C46.3499 15.9465 45.5945 16.2635 45.4389 16.9247L44.9734 18.903C44.7315 19.931 43.2685 19.931 43.0266 18.903L42.5611 16.9247C42.4055 16.2635 41.6501 15.9465 41.0693 16.2986L39.3033 17.3692C38.3918 17.9217 37.3637 16.855 37.9494 15.9645L38.9642 14.4218C39.3501 13.8351 39.027 13.0438 38.3407 12.895L36.5068 12.4973C35.456 12.2694 35.456 10.7706 36.5068 10.5427L38.3407 10.145C39.027 9.99621 39.3501 9.2049 38.9642 8.61819L37.9494 7.07552C37.3637 6.18499 38.3918 5.11826 39.3033 5.67083L41.0693 6.74139C41.6501 7.09352 42.4055 6.77649 42.5611 6.11529L43.0266 4.13698Z" fill="#904CF5"/>
<path d="M75.0266 4.13698C75.2685 3.10904 76.7315 3.10904 76.9734 4.13698L77.4389 6.11529C77.5945 6.77649 78.3499 7.09352 78.9307 6.74139L80.6967 5.67083C81.6082 5.11825 82.6363 6.18499 82.0506 7.07552L81.0358 8.61819C80.6499 9.2049 80.973 9.99621 81.6593 10.145L83.4932 10.5427C84.544 10.7706 84.544 12.2694 83.4932 12.4973L81.6593 12.895C80.973 13.0438 80.6499 13.8351 81.0358 14.4218L82.0506 15.9645C82.6363 16.855 81.6082 17.9217 80.6967 17.3692L78.9307 16.2986C78.3499 15.9465 77.5945 16.2635 77.4389 16.9247L76.9734 18.903C76.7315 19.931 75.2685 19.931 75.0266 18.903L74.5611 16.9247C74.4055 16.2635 73.6501 15.9465 73.0693 16.2986L71.3033 17.3692C70.3918 17.9217 69.3637 16.855 69.9494 15.9645L70.9642 14.4218C71.3501 13.8351 71.027 13.0438 70.3407 12.895L68.5068 12.4973C67.456 12.2694 67.456 10.7706 68.5068 10.5427L70.3407 10.145C71.027 9.99621 71.3501 9.2049 70.9642 8.61819L69.9494 7.07552C69.3637 6.18499 70.3918 5.11826 71.3033 5.67083L73.0693 6.74139C73.6501 7.09352 74.4055 6.77649 74.5611 6.11529L75.0266 4.13698Z" fill="#904CF5"/>
</svg>
