<svg width="60" height="24" viewBox="0 0 60 24" fill="none" xmlns="http://www.w3.org/2000/svg">
<g clip-path="url(#clip0)">
<path d="M8.06246 4.77128L8.07146 4.73096L8.09546 4.56104L6.98546 4.55528C5.98346 4.54952 5.67596 4.55528 5.64896 4.57976C5.63546 4.59128 5.28896 5.85416 4.67246 8.14088C4.37846 9.2324 4.13096 10.1036 4.12196 10.0777C4.11296 10.0518 3.76196 8.80616 3.33896 7.31C3.0857 6.39523 2.82369 5.48271 2.55296 4.57256C2.53796 4.55816 1.19396 4.5524 0.10496 4.56104C-0.0525404 4.56248 -0.14104 4.26584 1.51196 9.3116C1.73996 10.01 2.08346 10.9993 2.27246 11.509C2.49146 12.0966 2.64746 12.5516 2.75396 12.9303C2.94296 13.6518 2.94896 14.1039 2.90846 14.6324C2.86046 15.2415 2.85446 19.5471 2.90096 19.6191C2.93696 19.6738 5.03846 19.6998 5.23796 19.6479C5.26946 19.6393 5.29046 19.6105 5.30546 19.4478C5.35496 19.3081 5.35946 18.7508 5.35946 16.4382V13.4847L5.49446 13.0772C5.58296 12.8108 5.80346 12.1095 5.98646 11.5191L6.47696 9.94952C7.27046 7.46696 8.02646 5.02616 8.04746 4.88648L8.06396 4.77272L8.06246 4.77128Z" fill="white"/>
<path d="M19.8313 8.35397V8.50805H19.8058L19.7923 12.7604L19.7788 16.8831L19.4353 17.2186C19.0498 17.5944 18.7423 17.7384 18.4633 17.6708C18.1588 17.5973 18.1678 17.7111 18.1423 12.8381L18.1183 8.35253H15.9073V8.50661H15.8818V13.3738C15.8818 18.588 15.8818 18.5852 16.1578 19.1079C16.3768 19.5255 16.6978 19.7285 17.2453 19.7976C17.9668 19.8898 18.7453 19.5759 19.4668 18.902L19.7803 18.6096V19.1151C19.7803 19.5514 19.7938 19.6234 19.8763 19.645C20.0113 19.681 21.6853 19.6839 21.8653 19.6479L22.0153 19.6176V19.4679L22.0408 19.4636V8.32373L19.8328 8.35253L19.8313 8.35397Z" fill="white"/>
<path d="M14.2246 10.5514C14.0146 9.68885 13.6231 9.10853 12.9766 8.70821C11.9626 8.07893 10.8031 8.01125 9.72907 8.52101C8.94607 8.89253 8.44057 9.50885 8.18107 10.4132C8.14775 10.5219 8.12416 10.6332 8.11057 10.7458C8.04457 11.0655 8.03707 11.5407 8.01907 13.7597C7.99207 17.1783 8.03407 17.5844 8.47957 18.3605C8.91757 19.1223 9.82507 19.681 10.8136 19.7962C11.1106 19.8308 11.7136 19.7775 12.0616 19.6839C12.8491 19.4737 13.6051 18.8761 13.9396 18.1978C14.0868 17.9262 14.1828 17.6318 14.2231 17.3281C14.3206 16.8197 14.3281 15.9961 14.3281 13.8994C14.3281 11.2253 14.3191 10.933 14.2261 10.55L14.2246 10.5514ZM11.7031 17.5196C11.4751 17.6626 11.1974 17.7134 10.9306 17.6607C10.7281 17.6189 10.4536 17.3137 10.3696 17.0357C10.2646 16.6887 10.2571 11.8604 10.3471 10.9143C10.4971 10.4405 10.9141 10.1929 11.3701 10.3109C11.7256 10.4031 11.9071 10.6162 12.0106 11.0641C12.0871 11.3967 12.0961 11.81 12.0796 14.2421C12.0691 15.8549 12.0631 16.6441 12.0076 17.0674C11.9521 17.3338 11.8591 17.4058 11.7031 17.521V17.5196Z" fill="white"/>
<path d="M53.9158 12.9778H54.9838L54.9673 12.049C54.9508 11.1965 54.9373 11.1001 54.8188 10.8682C54.6313 10.5039 54.3553 10.3412 53.9173 10.3412C53.3908 10.3412 53.0578 10.586 52.9003 11.0871C52.8328 11.3002 52.7623 12.7676 52.8133 12.8943C52.8418 12.9649 52.9948 12.9778 53.9158 12.9778Z" fill="white"/>
<path d="M46.7759 10.8653C46.7124 10.7373 46.6101 10.6306 46.4825 10.5592C46.3548 10.4878 46.2078 10.455 46.0604 10.465C45.7813 10.4855 45.5154 10.5875 45.2984 10.7573L45.1079 10.897V17.57L45.2984 17.7097C45.7304 18.0265 46.2044 18.0927 46.5314 17.8825C46.6669 17.7907 46.7654 17.657 46.8104 17.5037C46.8959 17.2676 46.9034 16.9637 46.8929 14.1557C46.8809 11.2297 46.8749 11.0569 46.7759 10.8653Z" fill="white"/>
<path d="M60.0212 7.85854C59.8082 5.40911 59.6387 4.61423 59.1137 3.59327C58.4162 2.24111 57.4097 1.52831 55.9757 1.37135C54.8672 1.25039 50.6942 1.07903 46.8347 0.996946C40.1507 0.854386 29.1617 1.12943 27.7577 1.47359C27.1311 1.62122 26.5616 1.93803 26.1167 2.38655C25.2302 3.23327 24.7007 4.44863 24.4892 6.13055C24.0047 9.96958 23.9942 14.6064 24.4607 18.5851C24.6617 20.2958 25.0757 21.4075 25.8527 22.3233C26.3372 22.895 27.1742 23.3803 27.9212 23.5257C28.4462 23.628 31.0712 23.7691 34.8962 23.9001C35.4662 23.9203 36.9737 23.9534 38.2487 23.975C40.9037 24.0197 45.7862 23.9937 48.5777 23.9189C50.4557 23.8685 53.8787 23.7345 54.5192 23.687C54.6992 23.6741 55.1162 23.6481 55.4462 23.6309C56.5547 23.5704 57.2597 23.3486 57.9212 22.8489C58.7777 22.2024 59.4407 21.0086 59.7212 19.6075C59.9867 18.2827 60.1637 15.9225 60.1997 13.2427C60.2297 11.0035 60.1892 9.79678 60.0212 7.85566V7.85854ZM33.4052 6.97151L32.1632 6.9859L32.1092 19.7011L31.0322 19.7141C30.1997 19.7256 29.9462 19.7126 29.9267 19.6622C29.9117 19.6262 29.8952 16.7592 29.8877 13.2917L29.8742 6.9859L27.4487 6.9571V4.96991L34.6172 4.99727L34.6472 6.95567L33.4052 6.97006V6.97151ZM41.0207 14.2593V19.727H39.0587V19.151C39.0587 18.7176 39.0422 18.575 38.9882 18.575C38.9492 18.575 38.7722 18.7176 38.5937 18.8918C38.2052 19.2705 37.7462 19.5744 37.3532 19.7155C36.5402 20.0078 35.7692 19.8365 35.4407 19.2936C35.1392 18.7968 35.1347 18.6845 35.1347 13.5264V8.78878H37.0952L37.1102 13.2499C37.1252 17.6333 37.1267 17.7139 37.2362 17.8925C37.3817 18.1286 37.6022 18.1934 37.9532 18.0998C38.1602 18.0451 38.3012 17.9486 38.6357 17.6289L39.0587 17.2257V8.78878H41.0207V14.2565V14.2593ZM48.6737 18.9465C48.5012 19.3166 48.1157 19.6781 47.7992 19.7673C46.9757 20.0006 46.3142 19.8105 45.5507 19.1208C45.3137 18.9062 45.0932 18.7334 45.0602 18.7334C45.0197 18.7334 44.9987 18.9005 44.9987 19.2302V19.727H43.0367V4.96991H44.9987V7.37758C44.9987 8.70094 45.0167 9.78526 45.0392 9.78526C45.0617 9.78526 45.2687 9.60958 45.4997 9.39646C46.0307 8.90542 46.4732 8.68942 47.0357 8.6491C48.0392 8.57566 48.6377 9.07246 48.9107 10.2043C48.9962 10.5571 49.0037 10.9603 49.0037 14.2334C49.0037 18.2193 49.0037 18.2366 48.6722 18.9465H48.6737ZM56.9762 16.7577C56.966 17.1091 56.9274 17.4591 56.8607 17.8046C56.5877 18.7752 55.8617 19.4635 54.8117 19.7457C53.3987 20.1259 51.8417 19.5038 51.2207 18.3101C50.8727 17.6405 50.8592 17.5065 50.8592 14.2334C50.8592 11.5651 50.8697 11.2368 50.9582 10.8725C51.2102 9.84286 51.8342 9.17614 52.8917 8.80606C53.1977 8.6995 53.5172 8.64334 53.8367 8.63758C54.9782 8.61454 56.1092 9.2035 56.5847 10.1625C56.9042 10.8091 56.9447 11.087 56.9762 12.9101L57.0047 14.5459L52.8212 14.5733L52.8062 15.672C52.7837 17.2229 52.8932 17.6995 53.3297 17.9803C53.6957 18.2179 54.2597 18.1992 54.5657 17.9414C54.8537 17.6995 54.9347 17.4389 54.9632 16.6785L54.9887 16.0118H57.0092L56.9762 16.7577Z" fill="white"/>
</g>
<defs>
<clipPath id="clip0">
<rect width="60" height="23.04" fill="white" transform="translate(0 0.959595)"/>
</clipPath>
</defs>
</svg>
