<svg width="21" height="17" viewBox="0 0 21 17" fill="none" xmlns="http://www.w3.org/2000/svg">
<path d="M20.0999 4.84765V13.4C20.0999 14.1957 19.7838 14.9588 19.2212 15.5214C18.6586 16.084 17.8956 16.4 17.0999 16.4H3.8999C3.10425 16.4 2.34119 16.084 1.77858 15.5214C1.21597 14.9588 0.899902 14.1957 0.899902 13.4V4.84765L10.1951 10.3172C10.2874 10.3717 10.3927 10.4004 10.4999 10.4004C10.6071 10.4004 10.7124 10.3717 10.8047 10.3172L20.0999 4.84765ZM17.0999 0.800049C17.8381 0.799933 18.5504 1.07198 19.1005 1.56414C19.6507 2.0563 20.0001 2.73402 20.0819 3.46765L10.4999 9.10405L0.917902 3.46765C0.999692 2.73402 1.34909 2.0563 1.89926 1.56414C2.44942 1.07198 3.16173 0.799933 3.8999 0.800049H17.0999Z" fill="white"/>
</svg>
