<svg width="24" height="24" viewBox="0 0 24 24" fill="none" xmlns="http://www.w3.org/2000/svg">
<g clip-path="url(#clip0)">
<path d="M23.625 12.4786C23.625 6.3136 18.4219 1.3186 12 1.3186C5.57812 1.3186 0.375 6.3136 0.375 12.4786C0.375 18.0487 4.62609 22.6657 10.1836 23.5036V15.7047H7.23047V12.4786H10.1836V10.0198C10.1836 7.22305 11.918 5.6782 14.5744 5.6782C15.8466 5.6782 17.1769 5.896 17.1769 5.896V8.641H15.7106C14.2669 8.641 13.8164 9.5014 13.8164 10.3839V12.4786H17.0405L16.5248 15.7047H13.8164V23.5036C19.3739 22.6657 23.625 18.0487 23.625 12.4786Z" fill="white"/>
</g>
<defs>
<clipPath id="clip0">
<rect width="24" height="23.04" fill="white" transform="translate(0 0.959595)"/>
</clipPath>
</defs>
</svg>
