<svg width="23" height="24" viewBox="0 0 23 24" fill="none" xmlns="http://www.w3.org/2000/svg">
<g clip-path="url(#clip0)">
<path d="M20.19 3.20315C19.595 2.67995 17.185 0.998026 11.818 0.975946C11.818 0.975946 5.48499 0.612106 2.39999 3.32987C0.683991 4.97723 0.0829906 7.38971 0.0139906 10.382C-0.0550094 13.3743 -0.13201 18.9827 5.49899 20.5071H5.50399L5.49899 22.8294C5.49899 22.8294 5.46199 23.7702 6.10599 23.9593C6.88399 24.1935 7.34399 23.4774 8.08899 22.7075C8.49699 22.2841 9.05899 21.6639 9.48599 21.1907C11.933 21.4082 14.4007 21.2275 16.785 20.6559L16.635 20.6867C17.413 20.4438 21.815 19.9033 22.527 14.2959C23.271 8.50715 22.173 4.85531 20.19 3.20315ZM20.842 13.8735C20.235 18.5535 16.669 18.8511 16.013 19.0527C14.581 19.4022 12.937 19.6019 11.244 19.6019C10.758 19.6019 10.276 19.5855 9.79899 19.5529L9.86299 19.5567C9.86299 19.5567 7.42499 22.3782 6.66599 23.1116C6.41799 23.3497 6.14499 23.3305 6.14999 22.8553C6.14999 22.5452 6.16899 18.998 6.16899 18.998C1.40199 17.7289 1.67799 12.9519 1.73399 10.4569C1.78999 7.96187 2.27799 5.91131 3.73099 4.53467C6.34299 2.26235 11.72 2.59931 11.72 2.59931C16.263 2.61755 18.438 3.93179 18.944 4.37243C20.618 5.75003 21.471 9.04475 20.842 13.8726V13.8735ZM14.331 10.2371V10.2505C14.3289 10.3253 14.297 10.3964 14.2418 10.4492C14.1867 10.502 14.1125 10.5325 14.0346 10.5344C13.9567 10.5362 13.8811 10.5093 13.8233 10.4591C13.7655 10.409 13.7299 10.3395 13.724 10.2649V10.2639C13.7443 10.0635 13.7192 9.86122 13.6502 9.67104C13.5812 9.48086 13.47 9.30731 13.3244 9.16238C13.1787 9.01745 13.0021 8.90458 12.8066 8.83156C12.6111 8.75855 12.4014 8.72713 12.192 8.73947H12.196C12.1183 8.73369 12.0458 8.69947 11.9937 8.64389C11.9415 8.58831 11.9135 8.51561 11.9156 8.44081C11.9176 8.36601 11.9495 8.29482 12.0047 8.24196C12.0599 8.18909 12.1341 8.15859 12.212 8.15675H12.229H12.228L12.297 8.15579C12.5762 8.1557 12.8524 8.2107 13.1085 8.31739C13.3646 8.42408 13.5952 8.58017 13.7858 8.77597C13.9764 8.97177 14.1231 9.2031 14.2167 9.4556C14.3104 9.7081 14.3489 9.97638 14.33 10.2438V10.238L14.331 10.2371ZM15.282 10.7468C15.329 8.83835 14.087 7.34459 11.729 7.17755C11.6881 7.17632 11.6478 7.16717 11.6107 7.15065C11.5736 7.13413 11.5403 7.11058 11.5128 7.08141C11.4854 7.05224 11.4644 7.01806 11.4511 6.9809C11.4377 6.94375 11.4324 6.90439 11.4353 6.86519C11.4381 6.82599 11.4493 6.78776 11.4679 6.75279C11.4866 6.71781 11.5124 6.68681 11.5439 6.66166C11.5753 6.6365 11.6117 6.6177 11.6509 6.60638C11.6901 6.59506 11.7313 6.59146 11.772 6.59579H11.771H11.788C12.3476 6.59577 12.9013 6.70556 13.4151 6.91843C13.9289 7.1313 14.3919 7.44274 14.7758 7.83364C15.1597 8.22453 15.4562 8.68664 15.6473 9.19156C15.8384 9.69649 15.92 10.2336 15.887 10.7699L15.888 10.7593C15.8826 10.8337 15.8478 10.9033 15.7907 10.9538C15.7335 11.0044 15.6584 11.032 15.5807 11.031C15.503 11.03 15.4287 11.0005 15.3729 10.9486C15.3172 10.8966 15.2843 10.8261 15.281 10.7516V10.7439L15.282 10.7468ZM17.482 11.3507V11.3526C17.4779 11.427 17.4444 11.4971 17.3882 11.5485C17.3321 11.6 17.2575 11.6288 17.1799 11.6292C17.1023 11.6296 17.0275 11.6014 16.9708 11.5505C16.9141 11.4996 16.8798 11.4298 16.875 11.3555C16.851 7.68635 14.302 5.68859 11.213 5.66747C11.1732 5.66747 11.1338 5.65994 11.097 5.64532C11.0603 5.63071 11.0269 5.60928 10.9987 5.58227C10.9706 5.55526 10.9483 5.52319 10.9331 5.4879C10.9178 5.45261 10.91 5.41478 10.91 5.37659C10.91 5.33839 10.9178 5.30056 10.9331 5.26527C10.9483 5.22998 10.9706 5.19791 10.9987 5.1709C11.0269 5.14389 11.0603 5.12247 11.097 5.10785C11.1338 5.09323 11.1732 5.08571 11.213 5.08571C14.672 5.10875 17.452 7.40027 17.48 11.3497L17.482 11.3507ZM16.957 15.7647V15.7734C16.451 16.6287 15.504 17.5734 14.529 17.2719L14.52 17.2585C12.7817 16.6444 11.1522 15.777 9.68899 14.6867L9.72999 14.7155C9.00187 14.1604 8.34135 13.5283 7.76099 12.831L7.74199 12.807C7.2165 12.172 6.74752 11.4957 6.33999 10.7852L6.29999 10.7094C5.81784 9.9463 5.4181 9.13795 5.10699 8.29691L5.07699 8.20283C4.76299 7.26683 5.74199 6.35771 6.63799 5.87195H6.64699C6.82326 5.76362 7.03494 5.72146 7.24155 5.75351C7.44817 5.78557 7.63523 5.88959 7.76699 6.04571L7.76799 6.04763C7.76799 6.04763 8.34899 6.71291 8.59799 7.04219C8.83199 7.34843 9.14699 7.83899 9.30999 8.11259C9.43272 8.29954 9.48266 8.52211 9.45101 8.74099C9.41935 8.95987 9.30813 9.16096 9.13699 9.30875L9.13599 9.30971L8.57399 9.74171C8.48636 9.8229 8.41865 9.92179 8.37576 10.0312C8.33286 10.1406 8.31586 10.2578 8.32599 10.3743V10.3715C8.60427 11.2617 9.10651 12.0725 9.78841 12.7323C10.4703 13.3921 11.3109 13.8807 12.236 14.1548L12.278 14.1654C12.3988 14.1745 12.5202 14.158 12.6335 14.117C12.7469 14.0761 12.8495 14.0116 12.934 13.9283L13.384 13.3887C13.5386 13.2237 13.7491 13.1167 13.9782 13.0866C14.2072 13.0565 14.4399 13.1054 14.635 13.2246L14.631 13.2227C15.444 13.6671 16.147 14.1558 16.788 14.7097L16.777 14.7001C16.9396 14.8246 17.0478 15.0029 17.0804 15.2001C17.113 15.3973 17.0675 15.5991 16.953 15.7657L16.955 15.7628L16.957 15.7647Z" fill="white"/>
</g>
<defs>
<clipPath id="clip0">
<rect width="23" height="23.04" fill="white" transform="translate(0 0.959595)"/>
</clipPath>
</defs>
</svg>
