<svg width="21" height="24" viewBox="0 0 21 24" fill="none" xmlns="http://www.w3.org/2000/svg">
<g clip-path="url(#clip0)">
<path d="M10.5 10.0794C10.0055 10.0795 9.52221 10.2205 9.11116 10.4843C8.70011 10.7482 8.37978 11.1231 8.19068 11.5617C8.00158 12.0003 7.9522 12.4829 8.04878 12.9485C8.14536 13.414 8.38357 13.8416 8.73328 14.1772C9.08299 14.5128 9.52851 14.7414 10.0135 14.8339C10.4985 14.9264 11.0012 14.8789 11.458 14.6972C11.9148 14.5155 12.3052 14.2078 12.5799 13.8131C12.8546 13.4184 13.0012 12.9544 13.0012 12.4797C13.0008 11.843 12.737 11.2327 12.268 10.7826C11.7991 10.3325 11.1631 10.0796 10.5 10.0794ZM16.3458 8.23436C16.2185 7.92469 16.0263 7.64343 15.7811 7.40803C15.5359 7.17262 15.2429 6.9881 14.9203 6.86591C13.9359 6.49286 11.5922 6.57656 10.5 6.57656C9.40781 6.57656 7.06641 6.48971 6.07922 6.86591C5.75664 6.9881 5.46367 7.17262 5.21846 7.40803C4.97325 7.64343 4.78104 7.92469 4.65375 8.23436C4.26562 9.17936 4.35234 11.4316 4.35234 12.4792C4.35234 13.5268 4.26562 15.7764 4.65562 16.7245C4.78291 17.0342 4.97512 17.3154 5.22033 17.5508C5.46554 17.7862 5.75852 17.9708 6.08109 18.093C7.06547 18.466 9.40922 18.3823 10.5019 18.3823C11.5945 18.3823 13.935 18.4692 14.9222 18.093C15.2448 17.9708 15.5377 17.7862 15.783 17.5508C16.0282 17.3154 16.2204 17.0342 16.3477 16.7245C16.7391 15.7795 16.6491 13.5273 16.6491 12.4797C16.6491 11.4321 16.7391 9.18296 16.3477 8.23481L16.3458 8.23436ZM10.5 16.1697C9.73978 16.1697 8.99663 15.9532 8.36453 15.5478C7.73243 15.1423 7.23976 14.566 6.94884 13.8918C6.65791 13.2175 6.58179 12.4756 6.73011 11.7598C6.87842 11.044 7.2445 10.3865 7.78206 9.87043C8.31962 9.35438 9.00451 9.00294 9.75012 8.86056C10.4957 8.71818 11.2686 8.79125 11.9709 9.07054C12.6733 9.34983 13.2736 9.82279 13.696 10.4296C14.1183 11.0364 14.3438 11.7498 14.3438 12.4797C14.3444 12.9644 14.2454 13.4445 14.0524 13.8925C13.8595 14.3404 13.5764 14.7474 13.2193 15.0902C12.8623 15.433 12.4383 15.7047 11.9717 15.89C11.505 16.0752 11.0049 16.1702 10.5 16.1697ZM14.5022 9.49616C14.3247 9.49625 14.1512 9.44581 14.0036 9.35122C13.856 9.25663 13.7409 9.12215 13.673 8.96477C13.605 8.8074 13.5871 8.63421 13.6217 8.4671C13.6563 8.3 13.7417 8.14649 13.8671 8.02599C13.9926 7.90549 14.1525 7.82341 14.3265 7.79014C14.5006 7.75687 14.681 7.7739 14.8449 7.83908C15.0089 7.90425 15.1491 8.01465 15.2477 8.1563C15.3463 8.29795 15.3989 8.46449 15.3989 8.63486C15.3994 8.74799 15.3766 8.86011 15.3319 8.96478C15.2871 9.06944 15.2213 9.1646 15.1382 9.24478C15.055 9.32497 14.9562 9.38861 14.8474 9.43206C14.7386 9.4755 14.6219 9.4979 14.5041 9.49796L14.5022 9.49616ZM18.75 2.39966H2.25C1.65326 2.39966 1.08097 2.62723 0.65901 3.03231C0.237053 3.43739 0 3.98679 0 4.55966L0 20.3997C0 20.9725 0.237053 21.5219 0.65901 21.927C1.08097 22.3321 1.65326 22.5597 2.25 22.5597H18.75C19.3467 22.5597 19.919 22.3321 20.341 21.927C20.7629 21.5219 21 20.9725 21 20.3997V4.55966C21 3.98679 20.7629 3.43739 20.341 3.03231C19.919 2.62723 19.3467 2.39966 18.75 2.39966ZM17.9475 15.4497C17.887 16.603 17.6128 17.625 16.7358 18.4647C15.8588 19.3044 14.7952 19.573 13.5952 19.6279C12.3572 19.695 8.64563 19.695 7.40766 19.6279C6.20625 19.5699 5.14547 19.3062 4.26703 18.4647C3.38859 17.6232 3.1125 16.6008 3.05531 15.4497C2.98547 14.2608 2.98547 10.6972 3.05531 9.50966C3.11578 8.35631 3.38672 7.33436 4.26703 6.49466C5.14734 5.65496 6.21094 5.38946 7.40766 5.33456C8.64563 5.26751 12.3572 5.26751 13.5952 5.33456C14.7966 5.39261 15.8606 5.65631 16.7358 6.49781C17.6109 7.33931 17.8903 8.36171 17.9475 9.51506C18.0173 10.6995 18.0173 14.2599 17.9475 15.4497Z" fill="white"/>
</g>
<defs>
<clipPath id="clip0">
<rect width="21" height="23.04" fill="white" transform="translate(0 0.959595)"/>
</clipPath>
</defs>
</svg>
