<svg width="21" height="17" viewBox="0 0 21 17" fill="none" xmlns="http://www.w3.org/2000/svg">
<path d="M20.1 4.8474V13.3998C20.1 14.1955 19.784 14.9585 19.2213 15.5211C18.6587 16.0837 17.8957 16.3998 17.1 16.3998H3.90002C3.10438 16.3998 2.34131 16.0837 1.7787 15.5211C1.21609 14.9585 0.900024 14.1955 0.900024 13.3998V4.8474L10.1952 10.317C10.2876 10.3715 10.3928 10.4002 10.5 10.4002C10.6072 10.4002 10.7125 10.3715 10.8048 10.317L20.1 4.8474ZM17.1 0.799805C17.8382 0.799689 18.5505 1.07173 19.1007 1.56389C19.6508 2.05605 20.0002 2.73377 20.082 3.4674L10.5 9.10381L0.918025 3.4674C0.999814 2.73377 1.34921 2.05605 1.89938 1.56389C2.44954 1.07173 3.16185 0.799689 3.90002 0.799805H17.1Z" fill="white"/>
</svg>
