<svg width="21" height="21" viewBox="0 0 21 21" fill="none" xmlns="http://www.w3.org/2000/svg">
<path d="M10.5 8.08009C10.0055 8.08027 9.52221 8.22119 9.11116 8.48505C8.70011 8.74891 8.37978 9.12385 8.19068 9.56246C8.00158 10.0011 7.9522 10.4837 8.04878 10.9492C8.14536 11.4148 8.38357 11.8424 8.73328 12.178C9.08299 12.5136 9.52851 12.7421 10.0135 12.8346C10.4985 12.9272 11.0012 12.8796 11.458 12.6979C11.9148 12.5162 12.3052 12.2085 12.5799 11.8138C12.8546 11.4191 13.0012 10.9551 13.0012 10.4804C13.0008 9.84378 12.737 9.2334 12.268 8.78333C11.7991 8.33326 11.1631 8.08033 10.5 8.08009ZM16.3458 6.23509C16.2185 5.92542 16.0263 5.64416 15.7811 5.40876C15.5359 5.17336 15.2429 4.98883 14.9203 4.86664C13.9359 4.49359 11.5922 4.57729 10.5 4.57729C9.40781 4.57729 7.06641 4.49044 6.07922 4.86664C5.75664 4.98883 5.46367 5.17336 5.21846 5.40876C4.97325 5.64416 4.78104 5.92542 4.65375 6.23509C4.26562 7.18009 4.35234 9.43234 4.35234 10.4799C4.35234 11.5275 4.26562 13.7771 4.65562 14.7252C4.78291 15.0349 4.97512 15.3162 5.22033 15.5516C5.46554 15.787 5.75852 15.9715 6.08109 16.0937C7.06547 16.4667 9.40922 16.383 10.5019 16.383C11.5945 16.383 13.935 16.4699 14.9222 16.0937C15.2448 15.9715 15.5377 15.787 15.783 15.5516C16.0282 15.3162 16.2204 15.0349 16.3477 14.7252C16.7391 13.7802 16.6491 11.528 16.6491 10.4804C16.6491 9.43279 16.7391 7.18369 16.3477 6.23554L16.3458 6.23509ZM10.5 14.1704C9.73978 14.1704 8.99663 13.954 8.36453 13.5485C7.73243 13.143 7.23976 12.5668 6.94884 11.8925C6.65791 11.2182 6.58179 10.4763 6.73011 9.76051C6.87842 9.04472 7.2445 8.38722 7.78206 7.87117C8.31962 7.35511 9.00451 7.00367 9.75012 6.86129C10.4957 6.71891 11.2686 6.79199 11.9709 7.07127C12.6733 7.35056 13.2736 7.82352 13.696 8.43034C14.1183 9.03715 14.3438 9.75058 14.3438 10.4804C14.3444 10.9651 14.2454 11.4452 14.0524 11.8932C13.8595 12.3412 13.5764 12.7482 13.2193 13.0909C12.8623 13.4337 12.4383 13.7055 11.9717 13.8907C11.505 14.0759 11.0049 14.171 10.5 14.1704ZM14.5022 7.49689C14.3247 7.49698 14.1512 7.44654 14.0036 7.35195C13.856 7.25737 13.7409 7.12288 13.673 6.96551C13.605 6.80813 13.5871 6.63494 13.6217 6.46783C13.6563 6.30073 13.7417 6.14722 13.8671 6.02672C13.9926 5.90622 14.1525 5.82414 14.3265 5.79087C14.5006 5.7576 14.681 5.77463 14.8449 5.83981C15.0089 5.90499 15.1491 6.01538 15.2477 6.15703C15.3463 6.29868 15.3989 6.46522 15.3989 6.63559C15.3994 6.74873 15.3766 6.86084 15.3319 6.96551C15.2871 7.07017 15.2213 7.16533 15.1382 7.24552C15.055 7.3257 14.9562 7.38935 14.8474 7.43279C14.7386 7.47624 14.6219 7.49863 14.5041 7.49869L14.5022 7.49689ZM18.75 0.400391H2.25C1.65326 0.400391 1.08097 0.627961 0.65901 1.03304C0.237053 1.43812 0 1.98752 0 2.56039L0 18.4004C0 18.9733 0.237053 19.5227 0.65901 19.9277C1.08097 20.3328 1.65326 20.5604 2.25 20.5604H18.75C19.3467 20.5604 19.919 20.3328 20.341 19.9277C20.7629 19.5227 21 18.9733 21 18.4004V2.56039C21 1.98752 20.7629 1.43812 20.341 1.03304C19.919 0.627961 19.3467 0.400391 18.75 0.400391ZM17.9475 13.4504C17.887 14.6037 17.6128 15.6257 16.7358 16.4654C15.8588 17.3051 14.7952 17.5737 13.5952 17.6286C12.3572 17.6957 8.64563 17.6957 7.40766 17.6286C6.20625 17.5706 5.14547 17.3069 4.26703 16.4654C3.38859 15.6239 3.1125 14.6015 3.05531 13.4504C2.98547 12.2615 2.98547 8.69794 3.05531 7.51039C3.11578 6.35704 3.38672 5.33509 4.26703 4.49539C5.14734 3.65569 6.21094 3.39019 7.40766 3.33529C8.64563 3.26824 12.3572 3.26824 13.5952 3.33529C14.7966 3.39334 15.8606 3.65704 16.7358 4.49854C17.6109 5.34004 17.8903 6.36244 17.9475 7.51579C18.0173 8.70019 18.0173 12.2606 17.9475 13.4504Z" fill="white"/>
</svg>
