<svg width="24" height="24" viewBox="0 0 24 24" fill="none" xmlns="http://www.w3.org/2000/svg">
<path d="M-0.000606265 12.1351C-0.000606265 5.71124 5.23739 0.959961 11.9994 0.959961C18.7614 0.959961 23.9994 5.71124 23.9994 12.1351C23.9994 18.5553 18.7614 23.3102 11.9994 23.3102C10.7881 23.3102 9.62039 23.1561 8.53064 22.8674C8.3177 22.8118 8.09123 22.8291 7.89014 22.9164L5.49914 23.9251C5.35488 23.9866 5.19705 24.0131 5.03959 24.0022C4.88214 23.9913 4.7299 23.9433 4.59632 23.8626C4.46274 23.7818 4.35194 23.6707 4.27369 23.5391C4.19544 23.4075 4.15215 23.2594 4.14764 23.1079L4.07714 21.053C4.07262 20.9295 4.04227 20.808 3.9879 20.696C3.93353 20.5839 3.85624 20.4835 3.76064 20.4007C2.55754 19.359 1.59968 18.083 0.95096 16.6578C0.30224 15.2326 -0.0224194 13.691 -0.00135627 12.1358L-0.000606265 12.1351ZM8.31989 10.0312L4.80014 15.4089C4.44839 15.9151 5.12039 16.504 5.62064 16.1289L9.40964 13.3728C9.53404 13.2796 9.68727 13.2291 9.84502 13.2291C10.0028 13.2291 10.156 13.2796 10.2804 13.3728L13.0771 15.3902C13.2765 15.5322 13.5042 15.6333 13.746 15.6871C13.9878 15.7409 14.2386 15.7463 14.4827 15.703C14.7267 15.6597 14.9589 15.5686 15.1647 15.4354C15.3706 15.3022 15.5456 15.1297 15.6789 14.9287L19.1986 9.551C19.5504 9.04484 18.8784 8.4674 18.3781 8.831L14.5891 11.5872C14.4668 11.6801 14.3154 11.7307 14.1594 11.7307C14.0034 11.7307 13.8519 11.6801 13.7296 11.5872L10.9291 9.56972C10.7301 9.42525 10.5019 9.32214 10.2591 9.26693C10.0162 9.21172 9.76409 9.20562 9.51868 9.24903C9.27327 9.29244 9.03995 9.3844 8.83357 9.51906C8.62718 9.65373 8.45225 9.82815 8.31989 10.0312Z" fill="white"/>
</svg>
