<svg width="24" height="23" viewBox="0 0 24 23" fill="none" xmlns="http://www.w3.org/2000/svg">
<path d="M12 0.359375C5.57775 0.359375 0.375 5.35473 0.375 11.5194C0.375 17.684 5.5785 22.6794 12 22.6794C18.4222 22.6794 23.625 17.684 23.625 11.5194C23.625 5.35473 18.4215 0.359375 12 0.359375ZM17.7098 8.00505L15.8018 16.6364C15.6608 17.2484 15.2812 17.3967 14.7518 17.1087L11.8455 15.0524L10.4438 16.3484C10.2893 16.4967 10.158 16.6227 9.858 16.6227L10.0642 13.7831L15.45 9.11169C15.6848 8.91369 15.3982 8.80137 15.0885 8.99937L8.43225 13.022L5.5635 12.1623C4.94025 11.9737 4.926 11.564 5.69475 11.276L16.9028 7.12665C17.4233 6.94665 17.8778 7.24833 17.709 8.00433L17.7098 8.00505Z" fill="white"/>
</svg>
