<svg width="23" height="24" viewBox="0 0 23 24" fill="none" xmlns="http://www.w3.org/2000/svg">
<path d="M20.19 3.20339C19.595 2.68019 17.185 0.99827 11.818 0.97619C11.818 0.97619 5.48499 0.61235 2.39999 3.33011C0.683991 4.97747 0.0829906 7.38995 0.0139906 10.3823C-0.0550094 13.3746 -0.13201 18.9829 5.49899 20.5074H5.50399L5.49899 22.8296C5.49899 22.8296 5.46199 23.7704 6.10599 23.9596C6.88399 24.1938 7.34399 23.4776 8.08899 22.7077C8.49699 22.2843 9.05899 21.6642 9.48599 21.1909C11.933 21.4085 14.4007 21.2277 16.785 20.6562L16.635 20.6869C17.413 20.444 21.815 19.9035 22.527 14.2962C23.271 8.50739 22.173 4.85555 20.19 3.20339ZM20.842 13.8738C20.235 18.5538 16.669 18.8514 16.013 19.053C14.581 19.4024 12.937 19.6021 11.244 19.6021C10.758 19.6021 10.276 19.5858 9.79899 19.5532L9.86299 19.557C9.86299 19.557 7.42499 22.3784 6.66599 23.1119C6.41799 23.35 6.14499 23.3308 6.14999 22.8556C6.14999 22.5455 6.16899 18.9983 6.16899 18.9983C1.40199 17.7292 1.67799 12.9522 1.73399 10.4571C1.78999 7.96211 2.27799 5.91155 3.73099 4.53491C6.34299 2.26259 11.72 2.59955 11.72 2.59955C16.263 2.61779 18.438 3.93203 18.944 4.37267C20.618 5.75027 21.471 9.04499 20.842 13.8728V13.8738ZM14.331 10.2373V10.2508C14.3289 10.3255 14.297 10.3966 14.2418 10.4495C14.1867 10.5023 14.1125 10.5328 14.0346 10.5346C13.9567 10.5365 13.8811 10.5095 13.8233 10.4594C13.7655 10.4092 13.7299 10.3397 13.724 10.2652V10.2642C13.7443 10.0638 13.7192 9.86147 13.6502 9.67129C13.5812 9.4811 13.47 9.30756 13.3244 9.16262C13.1787 9.01769 13.0021 8.90482 12.8066 8.83181C12.6111 8.75879 12.4014 8.72737 12.192 8.73971H12.196C12.1183 8.73393 12.0458 8.69972 11.9937 8.64414C11.9415 8.58855 11.9135 8.51585 11.9156 8.44105C11.9176 8.36625 11.9495 8.29506 12.0047 8.2422C12.0599 8.18933 12.1341 8.15883 12.212 8.15699H12.229H12.228L12.297 8.15603C12.5762 8.15594 12.8524 8.21095 13.1085 8.31763C13.3646 8.42432 13.5952 8.58041 13.7858 8.77621C13.9764 8.97201 14.1231 9.20334 14.2167 9.45585C14.3104 9.70835 14.3489 9.97663 14.33 10.244V10.2383L14.331 10.2373ZM15.282 10.7471C15.329 8.83859 14.087 7.34483 11.729 7.17779C11.6881 7.17656 11.6478 7.16741 11.6107 7.1509C11.5736 7.13438 11.5403 7.11083 11.5128 7.08166C11.4854 7.05249 11.4644 7.0183 11.4511 6.98115C11.4377 6.94399 11.4324 6.90463 11.4353 6.86544C11.4381 6.82624 11.4493 6.788 11.4679 6.75303C11.4866 6.71805 11.5124 6.68706 11.5439 6.6619C11.5753 6.63674 11.6117 6.61794 11.6509 6.60662C11.6901 6.5953 11.7313 6.5917 11.772 6.59603H11.771H11.788C12.3476 6.59601 12.9013 6.70581 13.4151 6.91867C13.9289 7.13154 14.3919 7.44298 14.7758 7.83388C15.1597 8.22478 15.4562 8.68688 15.6473 9.19181C15.8384 9.69673 15.92 10.2338 15.887 10.7701L15.888 10.7596C15.8826 10.834 15.8478 10.9036 15.7907 10.9541C15.7335 11.0046 15.6584 11.0322 15.5807 11.0312C15.503 11.0303 15.4287 11.0008 15.3729 10.9488C15.3172 10.8969 15.2843 10.8264 15.281 10.7519V10.7442L15.282 10.7471ZM17.482 11.3509V11.3528C17.4779 11.4272 17.4444 11.4974 17.3882 11.5488C17.3321 11.6002 17.2575 11.6291 17.1799 11.6294C17.1023 11.6298 17.0275 11.6017 16.9708 11.5508C16.9141 11.4999 16.8798 11.4301 16.875 11.3557C16.851 7.68659 14.302 5.68883 11.213 5.66771C11.1732 5.66771 11.1338 5.66019 11.097 5.64557C11.0603 5.63095 11.0269 5.60952 10.9987 5.58251C10.9706 5.5555 10.9483 5.52344 10.9331 5.48815C10.9178 5.45285 10.91 5.41503 10.91 5.37683C10.91 5.33863 10.9178 5.30081 10.9331 5.26552C10.9483 5.23022 10.9706 5.19816 10.9987 5.17115C11.0269 5.14414 11.0603 5.12271 11.097 5.10809C11.1338 5.09347 11.1732 5.08595 11.213 5.08595C14.672 5.10899 17.452 7.40051 17.48 11.3499L17.482 11.3509ZM16.957 15.765V15.7736C16.451 16.629 15.504 17.5736 14.529 17.2722L14.52 17.2588C12.7817 16.6446 11.1522 15.7772 9.68899 14.6869L9.72999 14.7157C9.00187 14.1607 8.34135 13.5285 7.76099 12.8312L7.74199 12.8072C7.2165 12.1722 6.74752 11.4959 6.33999 10.7855L6.29999 10.7096C5.81784 9.94654 5.4181 9.13819 5.10699 8.29715L5.07699 8.20307C4.76299 7.26707 5.74199 6.35795 6.63799 5.87219H6.64699C6.82326 5.76387 7.03494 5.7217 7.24155 5.75376C7.44817 5.78581 7.63523 5.88984 7.76699 6.04595L7.76799 6.04787C7.76799 6.04787 8.34899 6.71315 8.59799 7.04243C8.83199 7.34867 9.14699 7.83923 9.30999 8.11283C9.43272 8.29978 9.48266 8.52236 9.45101 8.74124C9.41935 8.96012 9.30813 9.16121 9.13699 9.30899L9.13599 9.30995L8.57399 9.74195C8.48636 9.82314 8.41865 9.92203 8.37576 10.0315C8.33286 10.1409 8.31586 10.2581 8.32599 10.3746V10.3717C8.60427 11.2619 9.10651 12.0727 9.78841 12.7325C10.4703 13.3924 11.3109 13.8809 12.236 14.1551L12.278 14.1656C12.3988 14.1748 12.5202 14.1583 12.6335 14.1173C12.7469 14.0763 12.8495 14.0118 12.934 13.9285L13.384 13.389C13.5386 13.224 13.7491 13.1169 13.9782 13.0868C14.2072 13.0568 14.4399 13.1057 14.635 13.2248L14.631 13.2229C15.444 13.6674 16.147 14.156 16.788 14.7099L16.777 14.7003C16.9396 14.8248 17.0478 15.0032 17.0804 15.2004C17.113 15.3975 17.0675 15.5993 16.953 15.766L16.955 15.7631L16.957 15.765Z" fill="white"/>
</svg>
