<svg width="24" height="24" viewBox="0 0 24 24" fill="none" xmlns="http://www.w3.org/2000/svg">
<path d="M20.4015 3.34951C19.3012 2.28344 17.9909 1.43826 16.547 0.863214C15.103 0.288166 13.5543 -0.00524775 11.991 7.1036e-05C5.4405 7.1036e-05 0.102 5.12359 0.096 11.4135C0.096 13.4281 0.645 15.3879 1.6815 17.1231L0 23.0401L6.306 21.4532C8.05051 22.3646 10.0049 22.8423 11.991 22.8428H11.997C18.549 22.8428 23.886 17.7193 23.892 11.4236C23.8935 9.92317 23.5857 8.4373 22.9864 7.05158C22.3871 5.66585 21.5081 4.40767 20.4 3.34951H20.4015ZM11.991 20.9103C10.2195 20.9109 8.48055 20.4532 6.957 19.5855L6.597 19.3781L2.856 20.3199L3.855 16.8164L3.621 16.455C2.63071 14.9434 2.10697 13.1934 2.1105 11.4077C2.1105 6.18631 6.546 1.92679 11.997 1.92679C13.2956 1.92455 14.5818 2.16911 15.7815 2.64635C16.9812 3.12359 18.0706 3.82408 18.987 4.70743C19.9065 5.58734 20.6355 6.63332 21.1319 7.78504C21.6282 8.93676 21.8822 10.1714 21.879 11.4178C21.873 16.658 17.4375 20.9103 11.991 20.9103ZM17.4135 13.8053C17.118 13.6628 15.6585 12.973 15.384 12.8751C15.111 12.7815 14.9115 12.7325 14.7165 13.0177C14.517 13.3013 13.947 13.9479 13.776 14.1337C13.605 14.3252 13.428 14.3468 13.131 14.2057C12.8355 14.0617 11.877 13.7621 10.743 12.7873C9.858 12.0313 9.2655 11.0953 9.0885 10.8116C8.9175 10.5265 9.072 10.3738 9.2205 10.2313C9.351 10.1045 9.516 9.89719 9.6645 9.73303C9.8145 9.56887 9.864 9.44791 9.9615 9.25783C10.059 9.06487 10.0125 8.90071 9.939 8.75815C9.864 8.61559 9.2715 7.20871 9.021 6.64135C8.781 6.08119 8.5365 6.15895 8.3535 6.15175C8.1825 6.14167 7.983 6.14167 7.7835 6.14167C7.63285 6.14526 7.48459 6.17872 7.34804 6.23992C7.21149 6.30113 7.08959 6.38877 6.99 6.49735C6.717 6.78247 5.9535 7.47223 5.9535 8.87911C5.9535 10.286 7.0185 11.6382 7.1685 11.8297C7.3155 12.0212 9.2595 14.8997 12.243 16.1381C12.948 16.4333 13.503 16.6076 13.9365 16.7401C14.649 16.959 15.2925 16.9258 15.8055 16.8553C16.3755 16.7717 17.562 16.1641 17.8125 15.4973C18.0585 14.8292 18.0585 14.259 17.9835 14.1394C17.91 14.0185 17.7105 13.9479 17.4135 13.8053Z" fill="white"/>
</svg>
