<svg width="60" height="24" viewBox="0 0 60 24" fill="none" xmlns="http://www.w3.org/2000/svg">
<g clip-path="url(#clip0)">
<path d="M8.06246 4.77177L8.07146 4.73145L8.09546 4.56153L6.98546 4.55577C5.98346 4.55001 5.67596 4.55577 5.64896 4.58025C5.63546 4.59177 5.28896 5.85465 4.67246 8.14137C4.37846 9.23289 4.13096 10.1041 4.12196 10.0782C4.11296 10.0522 3.76196 8.80665 3.33896 7.31049C3.0857 6.39572 2.82369 5.4832 2.55296 4.57305C2.53796 4.55865 1.19396 4.55289 0.10496 4.56153C-0.0525404 4.56297 -0.14104 4.26633 1.51196 9.31209C1.73996 10.0105 2.08346 10.9998 2.27246 11.5095C2.49146 12.097 2.64746 12.5521 2.75396 12.9308C2.94296 13.6522 2.94896 14.1044 2.90846 14.6329C2.86046 15.242 2.85446 19.5476 2.90096 19.6196C2.93696 19.6743 5.03846 19.7002 5.23796 19.6484C5.26946 19.6398 5.29046 19.611 5.30546 19.4482C5.35496 19.3086 5.35946 18.7513 5.35946 16.4386V13.4852L5.49446 13.0777C5.58296 12.8113 5.80346 12.11 5.98646 11.5196L6.47696 9.95001C7.27046 7.46745 8.02646 5.02665 8.04746 4.88697L8.06396 4.77321L8.06246 4.77177Z" fill="white"/>
<path d="M19.8315 8.35446V8.50854H19.806L19.7925 12.7609L19.779 16.8836L19.4355 17.2191C19.05 17.5949 18.7425 17.7389 18.4635 17.6713C18.159 17.5978 18.168 17.7116 18.1425 12.8386L18.1185 8.35302H15.9075V8.5071H15.882V13.3743C15.882 18.5885 15.882 18.5857 16.158 19.1084C16.377 19.526 16.698 19.729 17.2455 19.7981C17.967 19.8903 18.7455 19.5764 19.467 18.9025L19.7805 18.6101V19.1156C19.7805 19.5519 19.794 19.6239 19.8765 19.6455C20.0115 19.6815 21.6855 19.6844 21.8655 19.6484L22.0155 19.6181V19.4684L22.041 19.4641V8.32422L19.833 8.35302L19.8315 8.35446Z" fill="white"/>
<path d="M14.2244 10.5519C14.0144 9.68934 13.6229 9.10902 12.9764 8.7087C11.9624 8.07942 10.8029 8.01174 9.72895 8.5215C8.94595 8.89302 8.44045 9.50934 8.18095 10.4137C8.14763 10.5224 8.12404 10.6337 8.11045 10.7463C8.04445 11.066 8.03695 11.5412 8.01895 13.7602C7.99195 17.1788 8.03395 17.5849 8.47945 18.361C8.91745 19.1228 9.82495 19.6815 10.8134 19.7967C11.1104 19.8313 11.7134 19.778 12.0614 19.6844C12.8489 19.4741 13.6049 18.8765 13.9394 18.1983C14.0867 17.9267 14.1827 17.6323 14.2229 17.3285C14.3204 16.8202 14.3279 15.9965 14.3279 13.8999C14.3279 11.2258 14.3189 10.9335 14.2259 10.5505L14.2244 10.5519ZM11.7029 17.5201C11.4749 17.6631 11.1973 17.7139 10.9304 17.6612C10.7279 17.6194 10.4534 17.3141 10.3694 17.0362C10.2644 16.6892 10.2569 11.8609 10.3469 10.9148C10.4969 10.441 10.9139 10.1933 11.3699 10.3114C11.7254 10.4036 11.9069 10.6167 12.0104 11.0645C12.0869 11.3972 12.0959 11.8105 12.0794 14.2426C12.0689 15.8554 12.0629 16.6445 12.0074 17.0679C11.9519 17.3343 11.8589 17.4063 11.7029 17.5215V17.5201Z" fill="white"/>
<path d="M53.916 12.9784H54.984L54.9675 12.0496C54.951 11.1972 54.9375 11.1007 54.819 10.8688C54.6315 10.5045 54.3555 10.3418 53.9175 10.3418C53.391 10.3418 53.058 10.5866 52.9005 11.0877C52.833 11.3008 52.7625 12.7682 52.8135 12.8949C52.842 12.9655 52.995 12.9784 53.916 12.9784Z" fill="white"/>
<path d="M46.776 10.866C46.7125 10.7379 46.6102 10.6313 46.4826 10.5598C46.355 10.4884 46.2079 10.4556 46.0605 10.4656C45.7814 10.4861 45.5155 10.5881 45.2985 10.758L45.108 10.8976V17.5706L45.2985 17.7103C45.7305 18.0271 46.2045 18.0933 46.5315 17.8831C46.667 17.7913 46.7655 17.6576 46.8105 17.5044C46.896 17.2682 46.9035 16.9644 46.893 14.1564C46.881 11.2303 46.875 11.0575 46.776 10.866Z" fill="white"/>
<path d="M60.0209 7.85903C59.8079 5.40959 59.6384 4.61471 59.1134 3.59375C58.4159 2.24159 57.4094 1.52879 55.9754 1.37183C54.8669 1.25087 50.6939 1.07951 46.8344 0.997435C40.1504 0.854875 29.1614 1.12991 27.7574 1.47407C27.1308 1.6217 26.5614 1.93851 26.1164 2.38703C25.2299 3.23375 24.7004 4.44911 24.4889 6.13103C24.0044 9.97007 23.9939 14.6069 24.4604 18.5856C24.6614 20.2963 25.0754 21.408 25.8524 22.3238C26.3369 22.8955 27.1739 23.3808 27.9209 23.5262C28.4459 23.6285 31.0709 23.7696 34.8959 23.9006C35.4659 23.9208 36.9734 23.9539 38.2484 23.9755C40.9034 24.0201 45.7859 23.9942 48.5774 23.9194C50.4554 23.8689 53.8784 23.735 54.5189 23.6875C54.6989 23.6746 55.1159 23.6486 55.4459 23.6314C56.5544 23.5709 57.2594 23.3491 57.9209 22.8494C58.7774 22.2029 59.4404 21.0091 59.7209 19.608C59.9864 18.2832 60.1634 15.923 60.1994 13.2432C60.2294 11.004 60.1889 9.79727 60.0209 7.85615V7.85903ZM33.4049 6.97199L32.1629 6.98639L32.1089 19.7016L31.0319 19.7146C30.1994 19.7261 29.9459 19.7131 29.9264 19.6627C29.9114 19.6267 29.8949 16.7597 29.8874 13.2922L29.8739 6.98639L27.4484 6.95759V4.97039L34.6169 4.99775L34.6469 6.95615L33.4049 6.97055V6.97199ZM41.0204 14.2598V19.7275H39.0584V19.1515C39.0584 18.7181 39.0419 18.5755 38.9879 18.5755C38.9489 18.5755 38.7719 18.7181 38.5934 18.8923C38.2049 19.271 37.7459 19.5749 37.3529 19.716C36.5399 20.0083 35.7689 19.837 35.4404 19.2941C35.1389 18.7973 35.1344 18.685 35.1344 13.5269V8.78927H37.0949L37.1099 13.2504C37.1249 17.6338 37.1264 17.7144 37.2359 17.893C37.3814 18.1291 37.6019 18.1939 37.9529 18.1003C38.1599 18.0456 38.3009 17.9491 38.6354 17.6294L39.0584 17.2262V8.78927H41.0204V14.257V14.2598ZM48.6734 18.947C48.5009 19.3171 48.1154 19.6786 47.7989 19.7678C46.9754 20.0011 46.3139 19.811 45.5504 19.1213C45.3134 18.9067 45.0929 18.7339 45.0599 18.7339C45.0194 18.7339 44.9984 18.901 44.9984 19.2307V19.7275H43.0364V4.97039H44.9984V7.37807C44.9984 8.70143 45.0164 9.78575 45.0389 9.78575C45.0614 9.78575 45.2684 9.61007 45.4994 9.39695C46.0304 8.90591 46.4729 8.68991 47.0354 8.64959C48.0389 8.57615 48.6374 9.07295 48.9104 10.2048C48.9959 10.5576 49.0034 10.9608 49.0034 14.2339C49.0034 18.2198 49.0034 18.2371 48.6719 18.947H48.6734ZM56.9759 16.7582C56.9658 17.1095 56.9272 17.4596 56.8604 17.8051C56.5874 18.7757 55.8614 19.464 54.8114 19.7462C53.3984 20.1264 51.8414 19.5043 51.2204 18.3106C50.8724 17.641 50.8589 17.507 50.8589 14.2339C50.8589 11.5656 50.8694 11.2373 50.9579 10.873C51.2099 9.84335 51.8339 9.17663 52.8914 8.80655C53.1974 8.69999 53.5169 8.64383 53.8364 8.63807C54.9779 8.61503 56.1089 9.20399 56.5844 10.163C56.9039 10.8096 56.9444 11.0875 56.9759 12.9106L57.0044 14.5464L52.8209 14.5738L52.8059 15.6725C52.7834 17.2234 52.8929 17.7 53.3294 17.9808C53.6954 18.2184 54.2594 18.1997 54.5654 17.9419C54.8534 17.7 54.9344 17.4394 54.9629 16.679L54.9884 16.0123H57.0089L56.9759 16.7582Z" fill="white"/>
</g>
<defs>
<clipPath id="clip0">
<rect width="60" height="23.04" fill="white" transform="translate(0 0.959961)"/>
</clipPath>
</defs>
</svg>
