<svg width="168" height="104" viewBox="0 0 168 104" fill="none" xmlns="http://www.w3.org/2000/svg">
<g filter="url(#filter0_d)">
<ellipse cx="82" cy="50" rx="80" ry="48" fill="#AC79F7"/>
</g>
<g filter="url(#filter1_i)">
<path d="M90.875 77.8438L94.2031 74.4453C95.7656 76.9922 97.9453 78.2656 100.742 78.2656C104.883 78.2656 107.609 74.9375 108.922 68.2812L113.07 47.4688C112.273 47.3438 111.711 47.2812 111.383 47.2812C108.898 47.2812 106.773 48.1875 105.008 50C103.258 51.8125 102.383 54 102.383 56.5625V56.8906L97.8359 59.1172C98.1797 54.6484 99.9375 51.2344 103.109 48.875C106.297 46.5 110.703 45.3125 116.328 45.3125H118.414L115.086 62.0938L127.344 50.4688C131.594 46.4531 135.055 44.4453 137.727 44.4453C138.789 44.4453 139.82 44.7344 140.82 45.3125L137.586 48.7578C136.914 48.1953 136.266 47.9141 135.641 47.9141C133.828 47.9141 131.281 49.2188 128 51.8281C124.734 54.4375 121.906 57.4219 119.516 60.7812C120.094 61.7656 121.602 64.375 124.039 68.6094C127.508 74.6562 130.5 77.6797 133.016 77.6797C133.859 77.6797 135.312 77.0234 137.375 75.7109L137.023 77.4922C134.336 79.7422 132.062 80.8672 130.203 80.8672C128.109 80.8672 125.992 79.5703 123.852 76.9766C121.711 74.3828 118.766 69.5391 115.016 62.4453L114.406 65.4453C113.531 69.8516 111.57 73.4531 108.523 76.25C105.492 79.0469 102.031 80.4453 98.1406 80.4453C95.2812 80.4453 92.8594 79.5781 90.875 77.8438Z" fill="white"/>
</g>
<g filter="url(#filter2_i)">
<path d="M70.5625 70L75 65.375H76.8125C79.2917 65.375 81.1042 64.6562 82.25 63.2188C83.3958 61.7812 84.3854 59 85.2188 54.875L88.4062 38.875C89.3438 34.1458 91.5 30.25 94.875 27.1875C98.25 24.1042 102.083 22.5625 106.375 22.5625C108.292 22.5625 110.51 23.25 113.031 24.625L111.469 32.4062H109.469C109.531 31.8646 109.562 31.4167 109.562 31.0625C109.562 27.1875 107.562 25.25 103.562 25.25C99.625 25.25 96.9896 28.6146 95.6562 35.3438L92.7812 49.7188C91.9271 54.0312 90.7292 57.3438 89.1875 59.6562C87.6667 61.9688 85.2917 64.0208 82.0625 65.8125L99.5312 66.0938C104.552 66.0938 108.969 64.9271 112.781 62.5938L112.312 64.9375C109.396 67.5208 107.198 69.1771 105.719 69.9062C104.26 70.6146 102.323 70.9688 99.9062 70.9688L70.5625 70Z" fill="white"/>
</g>
<g clip-path="url(#clip0)">
<g filter="url(#filter3_i)">
<path fill-rule="evenodd" clip-rule="evenodd" d="M49.6656 60.2071C49.2535 59.2288 44.8454 58.4541 43.5252 61.4775C42.0733 64.6478 45.1039 68.4382 48.2626 68.6187C48.8001 68.7448 49.2787 68.799 49.8324 68.7817C51.7021 65.9333 54.6428 65.0258 57.6148 63.2427C60.7431 61.366 63.3386 58.3676 63.3386 54.2518C63.3386 53.9191 63.0992 53.233 62.9282 52.9991C62.6963 53.0121 62.4174 53.2226 62.1666 53.382C61.8964 53.5538 61.6874 53.6458 61.4211 53.7787C61.0442 53.9668 61.0722 54.0774 60.9915 54.4627C58.367 65.224 45.7224 67.1941 47.9348 61.7269C48.4453 61.1734 48.638 60.9438 49.4842 60.6514C49.6554 60.5922 49.5698 60.2877 49.6656 60.2071Z" fill="white"/>
</g>
<path fill-rule="evenodd" clip-rule="evenodd" d="M51.6684 30.6746C51.981 30.7054 54.2258 30.8787 54.3736 30.7372C54.4441 30.6696 54.5157 29.7912 54.5652 29.654C54.6905 29.307 54.8856 29.0583 54.9895 28.7085C55.0463 28.5169 55.436 27.895 55.274 27.7273C55.0588 27.5045 54.6306 28.1274 54.5286 28.2436C54.4178 28.3697 54.3178 28.4554 54.2039 28.5823C53.6044 29.2491 53.2466 28.2055 53.0563 28.1769C52.6743 28.1196 52.5201 29.2737 51.9347 29.0484C51.7845 28.9906 51.5326 28.6592 51.4324 28.5279L51.0754 28.0923C50.9592 27.9806 50.6053 27.5513 50.5448 27.6253C50.4699 27.7171 50.7111 28.3561 50.8216 28.656C50.9779 29.0797 51.4955 30.4693 51.6684 30.6746Z" fill="white"/>
<g filter="url(#filter4_i)">
<path fill-rule="evenodd" clip-rule="evenodd" d="M51.2543 33.2095C51.3076 33.0672 51.3892 33.0651 51.5512 32.9794C52.1411 32.6671 52.9782 32.3404 53.5806 32.734C53.887 32.9342 54.1047 33.042 54.1149 33.2574C53.7387 33.4024 53.8214 33.2712 53.5347 33.5914C53.2528 33.906 52.6814 34.2218 52.299 33.8849C52.1043 33.7134 52.171 33.4757 52.0995 33.1964C51.6533 32.9842 51.4818 33.395 51.2543 33.2095ZM44.3178 41.4146C44.2788 46.3963 44.941 47.9165 48.0975 51.2729C48.3553 51.547 48.604 51.6698 48.9092 51.8736C49.1929 52.063 49.4831 52.2451 49.7566 52.4397C50.2278 52.7751 51.0516 53.0886 51.6477 53.3671C53.7644 54.3562 59.1923 54.1128 61.2348 52.9828C62.1382 52.4119 63.1204 51.9776 63.9667 51.3255C64.3045 51.0652 64.3474 51.06 64.8462 51.06C65.1883 51.06 65.3962 51.1262 65.6447 51.3384C65.8805 51.5398 66.1184 52.0071 66.2812 52.2849C67.1066 53.6934 67.2056 54.2282 67.6093 55.6265C67.7357 56.0646 67.8882 56.4039 67.9991 56.8328C68.057 57.0569 68.0597 57.2568 68.1297 57.4498C68.2311 57.7293 68.2695 57.7511 68.2661 58.134C68.2633 58.4574 68.282 58.5928 68.3394 58.8435C68.3838 59.038 68.4717 59.3105 68.4717 59.5013C68.4717 60.9665 68.4288 62.5202 68.0153 63.9397C67.6418 65.222 67.3499 65.8645 66.8048 67.1186C66.179 68.4273 66.4065 68.0197 65.5583 69.0812C63.8398 70.5581 62.7927 70.8928 61.1961 70.212C59.9373 69.6752 59.7619 68.747 59.6799 68.0989C59.5486 67.0599 60.6919 65.9859 60.2728 65.9127C60.0959 65.8818 58.7921 66.2287 58.6294 66.3164C55.9935 67.5268 55.6105 71.6526 57.39 73.6126C60.6443 77.5842 68.0757 75.5044 71.8623 70.4559C75.7303 65.2991 76.204 56.61 68.5461 49.8947C68.2461 49.6316 67.9877 49.5064 67.6955 49.2442C67.0762 48.6885 66.1044 48.4899 65.2655 48.4715C64.6784 48.4586 64.5144 48.527 63.9963 48.8577C62.2966 49.9426 59.8441 49.6415 57.9685 49.1199C54.0584 48.0321 49.8499 44.6017 49.1748 40.4886C49.1804 40.2619 49.218 40.3216 49.1909 40.0755C49.1614 39.8081 49.2359 38.9962 49.2665 38.7281C49.3557 37.947 49.7201 37.1477 50.0025 36.459C50.1868 36.0097 50.4716 35.6365 50.7225 35.2043C51.1712 35.1799 51.2946 35.2531 51.735 35.458C52.0439 35.6018 52.2074 35.586 52.5015 35.6731C52.7894 35.7584 53.8284 35.6117 54.1461 35.5397C54.9698 35.3531 56.1422 34.5877 56.1108 33.6525C56.0482 31.7791 54.5297 31.9406 53.0856 31.7258C52.3227 31.6123 51.1459 31.9751 50.3936 32.2183C49.7512 32.4259 49.6873 32.5392 49.1958 32.9195C48.873 33.1693 48.4407 33.4565 48.1059 33.7264C46.7382 34.8292 44.8089 38.0888 44.561 39.6979C44.4677 40.3042 44.3227 40.7827 44.3178 41.4146Z" fill="white"/>
</g>
<g filter="url(#filter5_i)">
<path fill-rule="evenodd" clip-rule="evenodd" d="M35.7328 33.2717C35.1425 33.5851 34.8487 32.7833 34.7682 32.4042C34.6847 32.0114 34.694 31.7146 34.4742 31.4908C34.3049 31.3185 34.0747 31.2036 33.7441 31.2214C33.067 32.251 34.3985 35.1988 35.079 36.0503C35.2349 36.241 35.4409 36.411 35.4409 36.6503C35.4409 36.9789 35.3026 36.9429 35.0526 36.9429C34.9913 36.9429 33.8681 35.8538 33.586 35.6406C33.1328 35.3731 33.0582 36.0132 33.087 36.3431C33.2227 37.8993 34.0572 38.8461 34.6809 40.1115C34.7981 40.3494 35.2581 40.5258 34.93 40.7758C34.2936 41.0899 32.9776 39.3742 32.8039 40.0949C32.7778 40.2031 32.8125 40.7872 32.8312 40.8502C32.9757 43.6229 36.6907 44.4909 36.8872 45.6936C36.8876 46.1088 35.9508 45.5986 35.845 45.5665C35.2647 45.3908 35.3336 45.2785 34.9882 45.3646C34.6876 46.9843 37.8055 49.4369 39.5575 49.8405C39.6991 49.9084 40.5242 50.2299 40.5735 50.3207C40.7117 50.5749 40.5614 50.7361 40.3443 50.7651C40.0366 50.8061 39.9191 50.6516 39.681 50.8108C39.6873 51.2338 40.9514 51.6706 41.3054 51.7578C42.2429 51.9886 43.8726 52.3266 44.6056 52.5599C45.1113 52.7208 48.1112 53.6454 48.4765 53.5858C48.7596 53.5397 49.1027 53.2254 49.2405 53.0407C48.8534 52.2854 46.6969 51.3422 45.6218 49.2808L44.8053 47.6789C44.6339 47.2931 44.4351 46.8631 44.3055 46.4718C43.8753 45.1725 43.7857 43.4905 43.7857 42.1217C43.7857 41.8894 43.9504 40.7136 43.9596 40.6284C43.8739 40.3429 43.5755 40.404 43.3037 40.3034C42.9845 40.1851 42.5214 39.5917 42.312 39.4636C41.137 38.7447 39.9837 36.4742 39.8078 36.4156C39.5191 34.5521 38.9477 34.3908 38.8409 33.7108C38.7548 33.1342 38.5692 32.3512 38.3007 31.9337C38.1651 31.9823 37.9213 32.0847 37.8776 32.2919L37.5367 31.8239C36.9979 31.0839 37.729 29.1728 37.177 28.9177C35.9433 27.218 34.8189 30.0027 35.3154 31.3147C35.325 31.6615 35.4266 31.9386 35.5188 32.2662C35.5958 32.5398 35.848 33.01 35.7328 33.2717Z" fill="white"/>
</g>
<g filter="url(#filter6_i)">
<path fill-rule="evenodd" clip-rule="evenodd" d="M69.3058 30.63C68.8728 30.6301 68.814 30.683 68.7418 29.948C68.7199 29.7253 68.6104 29.3627 68.3788 29.3115C68.1336 29.6647 68.0518 30.5401 68.0504 31.0395C68.048 31.8409 67.8509 32.446 67.6808 33.142C64.7846 40.0661 60.9992 43.1376 52.966 43.1759C51.914 43.2358 50.1512 43.0675 49.7912 41.3857C49.1738 43.509 54.7786 48.1774 57.4438 48.6736C59.4545 49.2056 60.857 49.6953 62.9591 49.0018C65.6304 48.1205 67.145 48.4329 68.9135 47.8625C69.2911 47.7408 70.7182 46.9867 70.7731 46.5214C70.3327 46.3004 69.6146 46.6561 69.6146 46.0025C69.6146 45.7276 69.7179 45.7084 69.9286 45.6492C70.4032 45.5161 70.8553 45.2387 71.292 44.9867L72.9631 43.9241C73.3313 43.6668 73.3673 43.496 73.6257 43.2171C73.8299 42.9966 74.1061 42.6049 73.9393 42.2575C73.6727 41.7021 71.7998 42.465 71.7999 41.8558C71.8 41.5358 71.7637 41.5061 72.2996 41.1886C73.2689 40.6142 75.2482 39.6134 75.701 38.7132C75.7919 38.5325 75.9451 38.1816 75.9658 37.9755L75.8397 37.8581C75.583 37.8467 75.2628 38.1326 75.0004 38.2327C74.7376 38.333 74.1832 38.3885 74.0582 38.079C74.4383 37.7604 76.4588 35.8592 76.1657 34.7804C76.4334 34.1845 76.5392 32.9602 75.8828 32.9015C75.5717 33.02 75.201 33.5176 75.0447 33.8319C74.554 34.8188 73.8 34.9305 73.7999 34.3458C74.3981 33.6078 74.4303 31.6174 74.546 30.9375C74.5863 30.7009 74.4934 29.9085 74.2792 29.7788C73.353 29.2178 72.8304 32.6917 71.8659 32.6917C71.4664 32.6917 71.3487 32.323 71.3486 31.9743C71.3485 31.7541 71.4995 31.3556 71.4306 30.7852C71.3097 29.7839 71.4275 28.7082 70.9752 27.8351C70.891 27.6726 70.8524 27.4877 70.7791 27.3286C70.5923 26.9231 70.291 26.9044 70.0569 27.3021C69.6105 28.0602 69.9929 28.8668 69.7573 29.7324C69.6979 29.9508 69.5169 30.6299 69.3058 30.63Z" fill="white"/>
</g>
<g filter="url(#filter7_i)">
<path fill-rule="evenodd" clip-rule="evenodd" d="M56.6575 80.9135C57.7731 80.4967 60.0089 78.5357 58.9159 77.521C58.5875 77.517 58.2245 77.7835 57.9177 77.8887C53.2743 78.1628 51.9697 74.6198 53.3315 72.2906L53.7045 71.6128C54.3998 70.626 55.7265 70.3967 56.0188 70.1513C56.4543 69.7856 56.0266 67.9108 58.6881 65.7905C59.0082 65.6306 59.1441 65.614 59.5037 65.5126C60.1906 65.3191 60.6972 65.2616 61.2037 65.7016C60.7723 65.9488 59.8086 66.6819 59.808 68.3078C59.8079 68.7071 60.9844 68.2783 61.5578 68.1567C69.7434 66.2825 68.9897 59.9601 66.1157 53.3433C65.9154 52.9248 65.2002 51.928 64.7902 51.7001C64.4958 51.5364 64.2872 51.7891 64.1203 51.9337C63.1365 52.7856 63.6317 52.3295 63.9057 54.0041C64.1331 56.4965 63.9504 57.1526 62.6583 59.0776C59.4886 63.3719 53.684 64.0559 50.6821 68.6602C46.6756 72.2662 49.4045 82.8612 56.6575 80.9135Z" fill="white"/>
</g>
<path fill-rule="evenodd" clip-rule="evenodd" d="M61.5333 69.0626C61.5542 69.0589 61.5752 69.055 61.5963 69.0509C62.6398 68.848 63.8171 68.2903 64.7513 67.7228C66.0463 66.9362 66.8351 66.2684 65.8015 67.7338C65.0064 68.8611 63.7582 70.1109 62.2874 70.1112C61.4794 70.1738 60.8006 69.7641 60.4083 69.3887C60.386 69.3673 60.3155 69.332 60.344 69.3248C60.8538 69.1963 61.056 69.1465 61.5333 69.0626ZM49.3558 60.3246C49.3098 60.3633 49.2456 60.3927 49.1843 60.4409C48.8552 60.6992 48.03 60.8775 47.6422 61.7812C47.2962 62.5876 47.4422 63.7217 48.1153 64.3393C49.3642 65.4855 52.067 65.1521 53.7939 64.2846C57.6687 62.3382 60.1274 58.5884 60.9915 54.4627C61.0722 54.0773 61.0442 53.9667 61.4212 53.7787C61.7345 53.6223 62.716 53.011 62.9282 52.9991C63.0992 53.233 63.3386 53.9191 63.3386 54.2517C63.3386 62.0661 54.6064 63.2435 50.1872 67.6387C50.1584 67.6673 50.135 67.7032 50.0996 67.7214C47.5252 69.0482 44.5612 66.9764 43.7535 64.4759C42.5057 60.1802 46.8636 59.0599 48.6998 59.7988C49.0393 59.9354 49.246 60.0639 49.3558 60.3246ZM53.3635 72.0396C52.5727 73.4607 52.675 75.0743 53.5364 76.3815C54.7647 78.0043 56.7783 78.6022 58.8218 77.5188C58.8374 77.5105 58.8525 77.5018 58.8679 77.4929C58.8368 78.9368 56.8697 81.04 54.9968 80.93C48.8518 80.5691 48.0741 72.9525 50.789 68.7883C52.8083 65.6911 56.689 64.4367 59.6896 62.3552C62.1077 60.6776 64.6118 57.457 64.1151 54.3196C63.8914 52.9069 63.1703 52.7565 64.1203 51.9337C64.2872 51.7891 64.4958 51.5364 64.7902 51.7001C65.5331 52.1131 66.8122 55.2888 67.0416 56.2931C68.38 62.1524 68.1761 66.7539 61.5578 68.1567C61.4277 68.1843 59.9814 68.5218 59.9654 68.4476C59.8297 67.8184 59.9273 67.2131 60.3246 66.6385C60.3324 66.6273 60.3403 66.616 60.3482 66.6048C60.5628 66.2991 60.8394 66.0586 61.1893 65.8953C61.2193 65.8813 61.2836 65.853 61.3354 65.8245C61.3692 65.8059 61.4024 65.7932 61.4013 65.763C60.8949 65.323 60.1906 65.3191 59.5037 65.5126C57.5234 66.2112 56.0308 67.6757 55.8042 70.1969C55.8031 70.2087 55.7508 70.2141 55.736 70.2181C54.9289 70.4362 54.2372 70.8919 53.6651 71.5941L53.3635 72.0396ZM48.0205 34.1963C50.0184 32.5853 51.5764 31.4657 53.7583 31.8446C55.0294 32.0653 55.6996 32.3774 55.9399 33.6525C55.9973 35.3646 53.1587 36.1206 51.735 35.458C51.7066 35.4448 51.6788 35.4318 51.6516 35.4189C51.2561 35.2321 50.9714 35.0854 50.5516 35.1082C44.1176 43.2296 58.4477 52.3993 63.9963 48.8577C65.2036 48.0871 67.6212 48.9353 68.5462 49.8947C85.5899 66.0037 57.8873 84.9133 56.5393 70.0004C56.5393 69.5768 56.7046 68.8375 56.8755 68.4716C57.2227 67.728 58.1104 66.8115 58.8111 66.4338C58.8664 66.404 60.1337 65.9411 60.1384 66.1718C60.14 66.253 59.8914 66.5258 59.757 66.7181C57.7956 69.5263 63.5183 73.7012 66.6853 67.6022C68.4566 63.9656 69.0107 60.7446 67.9991 56.8328C67.6131 55.3398 67.0514 53.5991 66.2813 52.2849C66.1184 52.0071 65.8805 51.5398 65.6447 51.3384C65.3963 51.1262 65.1456 50.6329 64.8035 50.6329C63.8391 50.6329 62.1914 52.3783 61.2348 52.9828C59.1838 54.1175 53.9052 54.422 51.6477 53.3671C51.0516 53.0886 50.2278 52.7751 49.7566 52.4397C49.2738 52.0961 48.4749 51.6742 48.0975 51.2729C43.5709 46.6366 42.6329 39.424 48.0205 34.1963ZM35.7328 33.2717C35.848 33.0101 35.692 32.4758 35.615 32.2022C35.3054 31.103 35.0562 29.9986 35.8472 29.0205C36.8769 27.7471 37.203 30.0681 37.2029 30.8273C37.2106 31.2331 37.1957 31.7666 37.1765 32.3175C37.1581 32.8449 37.478 34.2733 37.8547 32.9745C37.8678 32.899 37.887 32.8172 37.9108 32.7371C38.033 32.326 38.3194 31.9545 38.4264 32.7476C38.77 35.2942 40.5851 37.9448 42.312 39.6772C42.6819 40.0089 43.3722 40.4685 43.8993 40.8776C43.9283 40.9 43.8893 40.9533 43.8839 40.9951C43.8345 41.3793 43.767 41.9626 43.767 42.1205C43.767 45.0334 44.1521 46.8292 45.6165 49.3183C45.9794 49.8757 46.3838 50.4282 46.822 50.9318C47.2955 51.4761 47.8071 51.9643 48.3106 52.365C48.4977 52.5215 48.9736 52.865 49.2218 53.03C49.084 53.2148 48.6741 53.2835 48.3911 53.3296C47.9846 53.3958 46.8946 53.0908 46.4767 52.9883C44.9291 52.6087 45.1772 52.154 42.9936 51.9588C42.4814 51.913 41.7595 51.8696 41.3055 51.7579C40.9514 51.6707 39.6873 51.2339 39.681 50.8109C39.9192 50.6516 40.0366 50.8061 40.3443 50.7651C40.5614 50.7362 40.7117 50.5749 40.5736 50.3208C40.5242 50.23 39.6991 49.9085 39.5575 49.8405C37.6079 49.0553 34.8305 46.5391 34.9882 45.3647C35.3336 45.2786 35.2647 45.3909 35.845 45.5666C35.9508 45.5986 36.8876 46.1088 36.8872 45.6937C36.8867 45.0392 36.4997 44.9459 35.7974 44.2438C35.0605 43.5069 32.5674 41.6874 32.8894 40.3512C33.0257 39.7855 33.9416 40.6887 34.0862 40.742C34.3793 40.8501 34.9764 41.1569 35.2291 41.0321C35.5572 40.7821 35.0331 40.3281 34.9159 40.0902C34.7281 39.7092 34.6002 39.5828 34.3784 39.2679C33.8633 38.5366 33.1613 37.1961 33.087 36.3432C33.0583 36.0133 33.1328 35.3732 33.586 35.6406L34.1582 36.3574C34.3288 36.5497 34.7274 36.943 35.0526 36.943C35.3026 36.943 35.4409 36.979 35.4409 36.6503C35.4409 36.411 35.2349 36.2411 35.079 36.0503L34.4106 34.9456C34.1081 34.2619 33.3927 32.0242 33.8082 31.3923C34.8361 31.3368 34.7321 33.8031 35.7328 33.2717ZM74.0893 33.1777C73.9748 33.7191 73.7144 34.0546 73.7144 34.5273C73.7145 35.1121 74.5967 34.8615 75.0875 33.8746C75.2437 33.5604 75.5717 33.02 75.8828 32.9015C76.237 33.1357 76.1952 33.4812 76.1318 33.9242C75.9829 34.9643 75.2537 36.7157 74.4759 37.3174C74.2482 37.4935 73.8726 37.619 74.0582 38.079C74.1832 38.3885 74.7376 38.333 75.0004 38.2328C75.2628 38.1326 75.583 37.8467 75.8397 37.8581C76.0763 38.0784 75.8402 38.4363 75.701 38.7132C75.2216 39.6663 73.251 40.6248 72.2996 41.1886C71.7637 41.5062 71.8001 41.5358 71.8 41.8558C71.7998 42.465 73.6727 41.7021 73.9393 42.2575C74.4091 43.2363 71.8417 44.6372 71.292 44.9867C70.8553 45.2387 70.4032 45.5161 69.9287 45.6492C69.718 45.7084 69.6146 45.7276 69.6146 46.0025C69.6146 46.6561 70.3327 46.3004 70.7732 46.5214C70.7182 46.9867 69.3125 47.634 68.9349 47.7558C67.246 48.3004 67.1948 47.991 66.4356 47.9069C63.7762 47.6719 64.2578 48.037 62.7651 48.7591C60.117 50.04 54.3071 47.1431 51.5298 44.2378C51.3011 43.9985 51.0929 43.7592 50.9088 43.5222C50.8627 43.4628 50.7043 43.3258 50.775 43.3445C51.7962 43.6136 52.949 43.7219 54.2266 43.6778C61.1234 42.9466 64.339 40.3713 67.1704 34.8994C67.2116 34.8199 67.2624 34.744 67.2936 34.6591C67.91 32.9821 67.9592 32.8076 68.1999 30.8473C68.2014 30.3479 68.1336 29.6647 68.3788 29.3115C68.6105 29.3627 68.72 29.7254 68.7418 29.948C68.814 30.683 68.8728 30.6301 69.3058 30.63C69.5169 30.6299 69.6979 29.9509 69.7574 29.7325C69.9929 28.8668 69.6105 28.0602 70.0569 27.3021C71.0356 25.6399 71.4104 30.6179 71.4306 30.7852C71.4995 31.3557 71.3485 31.7541 71.3486 31.9743C71.3487 32.3231 71.4664 32.6917 71.866 32.6917C72.3262 32.6917 72.6569 32.0481 72.9611 31.3591C73.3664 30.4412 73.7245 29.4428 74.2792 29.7788C74.4934 29.9085 74.5009 30.7009 74.4606 30.9375C74.341 31.6399 74.2593 32.3734 74.0893 33.1777ZM76.3448 37.2043C76.1139 36.8907 76.0178 36.9935 75.5746 36.9623C75.6509 36.7885 75.7202 36.7524 75.8173 36.5773C76.317 35.6762 77.2361 33.2839 76.4336 32.4831C76.2383 32.2881 75.9138 32.1028 75.5128 32.2714C74.9973 32.4881 75.0059 33.345 74.4586 33.5819C74.6802 32.9162 75.6093 27.6771 73.5356 29.3206C72.7872 29.9138 72.6994 30.606 72.2996 31.3873C71.9111 32.1468 71.9359 31.2626 71.9466 30.4887C71.9611 29.4306 71.4323 26.4868 70.4006 26.289C69.1402 26.0474 69.2518 29.0245 69.1734 29.1534C68.8692 28.9945 68.8216 28.5183 68.2837 28.4664C67.711 28.324 67.9396 28.9603 67.8754 29.4792C67.5862 33.9735 64.8951 38.5397 61.1691 40.8012C58.2886 42.5494 56.0089 42.9307 54.3146 43.0484C52.5722 43.1694 51.4451 42.9933 50.6486 42.3829C48.1555 40.4721 49.8069 35.5314 50.9277 35.6016C51.4536 35.6889 51.8066 36.1178 52.7916 36.1721C53.5457 36.2137 55.7501 35.8298 56.148 35.0542C56.2699 35.0555 57.3518 35.0843 57.5113 35.1527C57.5882 35.1857 57.9379 35.2661 58.2019 35.3993C58.4569 35.5279 58.627 35.7108 58.6738 35.6688C58.8268 35.5314 58.6495 35.1324 58.4115 34.9684C58.1741 34.8048 56.6083 34.7321 56.6083 34.379C56.834 34.2122 59.28 34.5193 59.1268 33.4572C58.653 33.3241 57.9438 33.8846 56.6918 33.4955C55.8723 32.4387 56.6439 32.2214 54.2766 31.4641C49.7134 30.2915 44.9093 36.1331 44.0655 40.0948C42.8985 39.3432 40.7693 36.832 40.1788 35.6766L39.6476 34.6373C39.5164 34.3805 39.2531 33.9596 38.9083 32.8127C38.7533 32.0395 38.2397 30.5371 37.8208 31.6492C37.5391 31.159 37.9996 28.1575 36.6435 28.1353C34.942 28.1077 34.6772 30.1614 34.5908 30.8912C34.3596 30.6307 33.8434 30.1363 33.4223 30.5433C32.9096 31.0388 32.9732 33.4554 33.4107 34.2402C33.7539 35.0271 33.9535 35.2646 33.2857 34.9386C32.4438 35.0528 32.2799 36.5604 32.5503 37.1222C32.7267 37.7958 33.4269 39.3746 33.8819 39.8573C33.4745 39.8438 33.0879 39.1457 32.6983 39.2964C31.1942 40.3603 33.954 43.7726 34.6934 44.3317C34.8282 44.4302 34.9355 44.4685 35.0154 44.5986C34.6819 44.767 34.3761 44.6446 34.2777 45.0866C34.1927 45.4684 34.2171 45.7619 34.3721 46.0677C34.7344 46.7826 36.286 48.7643 37.033 49.2552C38.209 50.028 38.9604 50.097 39.0426 50.2586C39.0983 50.3682 38.6514 50.4532 38.9392 51.0293C39.4606 52.0729 41.2189 52.3607 42.2459 52.4966C44.5345 52.8365 47.2833 54.1001 49.143 53.7443C50.2103 53.54 50.1888 53.6873 51.0944 54.0561C53.7401 55.2543 57.4159 55.4236 60.1563 54.3075C61.0445 57.0454 51.5555 67.5585 48.3325 63.7651C47.3886 62.5725 48.1854 61.0175 49.5741 60.8835C49.8859 60.8744 50.0903 60.8974 50.341 60.9868C50.3669 60.996 50.6075 61.1543 50.6154 61.1321C50.7289 60.8118 50.6218 60.4285 50.4725 60.1476C50.0413 59.3358 49.4323 59.0262 48.7277 58.7455C45.7742 57.5691 41.3229 60.6975 42.9439 65.1167C43.6706 67.098 45.7704 69.0417 47.91 69.2577L48.8213 69.3497L48.6305 69.6916C47.3319 72.0179 47.3497 74.9097 48.5062 77.2316C49.7418 79.5308 51.7932 81.1904 54.5635 81.6065C58.7455 82.2347 59.9771 76.9278 59.238 76.5348C59.0378 76.6948 58.5298 77.1791 58.1503 77.3006C58.137 77.3048 58.1241 77.311 58.1106 77.3163C57.3781 77.603 55.9222 77.9756 54.4393 76.5518C53.2549 75.2213 53.4311 73.4775 54.1273 72.5496C54.4772 71.9742 55.1298 71.4432 55.7321 71.0755C55.7581 71.0596 55.8066 70.9989 55.8098 71.0287C56.8883 81.1126 79.2106 75.8384 74.3864 57.0469C73.9316 55.1773 70.9545 50.7814 69.3483 49.5362C69.1744 49.4014 68.442 48.914 68.4539 48.7244C70.0807 48.4183 73.0821 45.9417 71.4894 45.7378C71.4882 45.7246 77.22 41.961 73.9067 41.4997C73.693 41.47 73.666 41.4593 73.4745 41.3705C74.5061 40.7128 77.5716 38.8704 76.3448 37.2043Z" fill="white"/>
<g filter="url(#filter8_i)">
<path fill-rule="evenodd" clip-rule="evenodd" d="M44.6076 57.1047C45.4882 56.7222 48.3266 56.6851 49.513 56.6741C49.8318 56.6712 50.0288 56.7528 50.0387 56.7474C50.0877 56.2152 48.3754 55.7736 48.0562 55.7201C47.5494 55.6353 46.9135 55.4053 46.5719 55.4053C44.6447 55.4053 39.8112 56.9127 39.0049 54.1315C38.8857 53.7205 38.9371 53.6059 38.9833 53.397C39.0025 53.3102 39.1918 53.3138 39.1966 53.1664C40.5765 52.9075 38.8466 52.1847 37.431 52.9673C34.5942 55.2275 39.5612 59.5335 44.6076 57.1047Z" fill="white"/>
</g>
<path fill-rule="evenodd" clip-rule="evenodd" d="M36.7399 54.599C36.7399 53.5276 37.7867 52.6722 38.4352 52.657C38.7745 52.649 39.3092 52.7316 39.4637 52.9422C38.8901 53.2492 38.7574 53.711 38.8767 54.1742C39.683 56.9555 44.7409 55.5655 46.668 55.5655C48.7602 55.5655 50.1481 56.7538 49.976 56.7127C48.0333 56.2494 47.3612 56.0976 45.4102 56.5332C44.3039 56.7803 43.1537 57.144 41.7999 57.3521C39.952 57.6362 36.7399 56.8487 36.7399 54.599ZM51.9143 59.2124C52.3917 58.9921 51.6855 57.7326 51.4799 57.3772C48.877 52.8777 40.5274 57.3372 39.2492 54.1826C39.0771 53.7578 39.2726 53.387 39.5787 53.2104C40.1032 52.9078 40.4603 53.2648 40.4935 53.2856C40.0498 52.3485 38.6218 52.1624 38.0971 52.2407C35.3224 52.7763 34.6117 57.5214 41.2379 57.9351C42.0121 58.0392 45.753 57.1497 46.7425 56.9734C47.9337 56.761 48.919 56.6835 50.123 57.0953C50.8242 57.3352 51.4685 58.1589 51.7147 58.9015C51.7755 59.0847 51.7516 59.1326 51.9143 59.2124Z" fill="white"/>
<path fill-rule="evenodd" clip-rule="evenodd" d="M51.2544 33.2095C51.4819 33.395 51.6533 32.9841 52.0995 33.1963C52.171 33.4757 52.1043 33.7134 52.299 33.8849C52.6815 34.2218 53.3757 33.9487 53.5347 33.5913C53.8214 33.2712 53.7387 33.4024 54.115 33.2574C54.1047 33.042 53.887 32.9341 53.5806 32.734C52.9782 32.3404 52.1411 32.6671 51.5512 32.9794C51.3892 33.0651 51.3076 33.0672 51.2544 33.2095Z" fill="#904CF5"/>
<path fill-rule="evenodd" clip-rule="evenodd" d="M56.3282 26.4504C56.1592 26.1443 55.9701 26.2021 55.7946 26.4525C55.3801 27.0437 56.602 26.9463 56.3282 26.4504Z" fill="white"/>
<path fill-rule="evenodd" clip-rule="evenodd" d="M51.6684 30.6746C51.723 29.9181 50.4419 27.7551 50.6618 27.8272C50.706 27.8417 50.7836 27.9081 50.8741 27.9986C51.0448 28.1692 51.2619 28.4253 51.3897 28.5813C51.4898 28.7127 51.7846 28.9906 51.9348 29.0484C52.5202 29.2737 52.6744 28.1196 53.0563 28.1769C53.2466 28.2056 53.6044 29.2491 54.2039 28.5823C54.3178 28.4555 54.4178 28.3697 54.5286 28.2436C54.6306 28.1274 55.0588 27.5045 55.274 27.7273C55.1348 27.8414 54.1785 30.5012 54.3148 30.6571C54.1671 30.7986 51.981 30.7054 51.6684 30.6746ZM52.0853 28.7089C51.7663 28.7086 51.2699 28.1432 51.0759 27.9139C50.8774 27.6796 50.3806 27.0135 50.0903 27.0292C50.0596 27.3608 50.3985 27.8103 50.5247 28.18L51.0796 29.8049C51.3335 30.6496 50.818 30.9626 51.5112 31.0205L54.5985 30.9847C54.6774 30.9511 54.5338 30.2899 55.0676 29.0494L55.3782 28.341C55.4732 28.0824 55.5508 27.8038 55.6567 27.5652C55.7245 27.4125 55.9289 26.8967 55.5073 27.012C55.0112 27.1478 53.9818 28.7246 53.6945 28.3858C53.5716 28.241 53.2914 27.5021 53.1991 27.3224C53.0473 27.0269 53.0013 26.9376 52.8338 27.273C52.6305 27.6797 52.5779 28.7094 52.0853 28.7089Z" fill="white"/>
<path fill-rule="evenodd" clip-rule="evenodd" d="M49.4508 26.5466C49.6198 26.2405 49.8089 26.2983 49.9844 26.5487C50.3989 27.1399 49.177 27.0425 49.4508 26.5466Z" fill="white"/>
<path fill-rule="evenodd" clip-rule="evenodd" d="M52.9532 26.2009C53.3017 26.1709 53.3589 26.36 53.2484 26.6452C52.9877 27.3184 52.3887 26.2494 52.9532 26.2009Z" fill="white"/>
<path d="M53.0739 33.2799C53.1771 33.2799 53.2608 33.1962 53.2608 33.093C53.2608 32.9898 53.1771 32.9061 53.0739 32.9061C52.9706 32.9061 52.8869 32.9898 52.8869 33.093C52.8869 33.1962 52.9706 33.2799 53.0739 33.2799Z" fill="white"/>
</g>
<defs>
<filter id="filter0_d" x="0" y="0" width="168" height="104" filterUnits="userSpaceOnUse" color-interpolation-filters="sRGB">
<feFlood flood-opacity="0" result="BackgroundImageFix"/>
<feColorMatrix in="SourceAlpha" type="matrix" values="0 0 0 0 0 0 0 0 0 0 0 0 0 0 0 0 0 0 127 0" result="hardAlpha"/>
<feOffset dx="2" dy="2"/>
<feGaussianBlur stdDeviation="2"/>
<feComposite in2="hardAlpha" operator="out"/>
<feColorMatrix type="matrix" values="0 0 0 0 0.890196 0 0 0 0 0.823529 0 0 0 0 0.988235 0 0 0 1 0"/>
<feBlend mode="normal" in2="BackgroundImageFix" result="effect1_dropShadow"/>
<feBlend mode="normal" in="SourceGraphic" in2="effect1_dropShadow" result="shape"/>
</filter>
<filter id="filter1_i" x="90.875" y="44.4453" width="50.9453" height="37.4219" filterUnits="userSpaceOnUse" color-interpolation-filters="sRGB">
<feFlood flood-opacity="0" result="BackgroundImageFix"/>
<feBlend mode="normal" in="SourceGraphic" in2="BackgroundImageFix" result="shape"/>
<feColorMatrix in="SourceAlpha" type="matrix" values="0 0 0 0 0 0 0 0 0 0 0 0 0 0 0 0 0 0 127 0" result="hardAlpha"/>
<feOffset dx="1" dy="1"/>
<feGaussianBlur stdDeviation="0.5"/>
<feComposite in2="hardAlpha" operator="arithmetic" k2="-1" k3="1"/>
<feColorMatrix type="matrix" values="0 0 0 0 0.564706 0 0 0 0 0.298039 0 0 0 0 0.960784 0 0 0 1 0"/>
<feBlend mode="normal" in2="shape" result="effect1_innerShadow"/>
</filter>
<filter id="filter2_i" x="70.5625" y="22.5625" width="43.4688" height="49.4062" filterUnits="userSpaceOnUse" color-interpolation-filters="sRGB">
<feFlood flood-opacity="0" result="BackgroundImageFix"/>
<feBlend mode="normal" in="SourceGraphic" in2="BackgroundImageFix" result="shape"/>
<feColorMatrix in="SourceAlpha" type="matrix" values="0 0 0 0 0 0 0 0 0 0 0 0 0 0 0 0 0 0 127 0" result="hardAlpha"/>
<feOffset dx="1" dy="1"/>
<feGaussianBlur stdDeviation="0.5"/>
<feComposite in2="hardAlpha" operator="arithmetic" k2="-1" k3="1"/>
<feColorMatrix type="matrix" values="0 0 0 0 0.564706 0 0 0 0 0.298039 0 0 0 0 0.960784 0 0 0 1 0"/>
<feBlend mode="normal" in2="shape" result="effect1_innerShadow"/>
</filter>
<filter id="filter3_i" x="43.1514" y="52.9991" width="21.1873" height="16.7857" filterUnits="userSpaceOnUse" color-interpolation-filters="sRGB">
<feFlood flood-opacity="0" result="BackgroundImageFix"/>
<feBlend mode="normal" in="SourceGraphic" in2="BackgroundImageFix" result="shape"/>
<feColorMatrix in="SourceAlpha" type="matrix" values="0 0 0 0 0 0 0 0 0 0 0 0 0 0 0 0 0 0 127 0" result="hardAlpha"/>
<feOffset dx="1" dy="1"/>
<feGaussianBlur stdDeviation="0.5"/>
<feComposite in2="hardAlpha" operator="arithmetic" k2="-1" k3="1"/>
<feColorMatrix type="matrix" values="0 0 0 0 0.454902 0 0 0 0 0.121569 0 0 0 0 0.94902 0 0 0 0.6 0"/>
<feBlend mode="normal" in2="shape" result="effect1_innerShadow"/>
</filter>
<filter id="filter4_i" x="44.3162" y="31.7043" width="31.2771" height="44.9887" filterUnits="userSpaceOnUse" color-interpolation-filters="sRGB">
<feFlood flood-opacity="0" result="BackgroundImageFix"/>
<feBlend mode="normal" in="SourceGraphic" in2="BackgroundImageFix" result="shape"/>
<feColorMatrix in="SourceAlpha" type="matrix" values="0 0 0 0 0 0 0 0 0 0 0 0 0 0 0 0 0 0 127 0" result="hardAlpha"/>
<feOffset dx="1" dy="1"/>
<feGaussianBlur stdDeviation="1"/>
<feComposite in2="hardAlpha" operator="arithmetic" k2="-1" k3="1"/>
<feColorMatrix type="matrix" values="0 0 0 0 0.454902 0 0 0 0 0.121569 0 0 0 0 0.94902 0 0 0 0.6 0"/>
<feBlend mode="normal" in2="shape" result="effect1_innerShadow"/>
</filter>
<filter id="filter5_i" x="32.7945" y="28.3835" width="17.446" height="26.205" filterUnits="userSpaceOnUse" color-interpolation-filters="sRGB">
<feFlood flood-opacity="0" result="BackgroundImageFix"/>
<feBlend mode="normal" in="SourceGraphic" in2="BackgroundImageFix" result="shape"/>
<feColorMatrix in="SourceAlpha" type="matrix" values="0 0 0 0 0 0 0 0 0 0 0 0 0 0 0 0 0 0 127 0" result="hardAlpha"/>
<feOffset dx="1" dy="1"/>
<feGaussianBlur stdDeviation="0.5"/>
<feComposite in2="hardAlpha" operator="arithmetic" k2="-1" k3="1"/>
<feColorMatrix type="matrix" values="0 0 0 0 0.454902 0 0 0 0 0.121569 0 0 0 0 0.94902 0 0 0 0.6 0"/>
<feBlend mode="normal" in2="shape" result="effect1_innerShadow"/>
</filter>
<filter id="filter6_i" x="49.7441" y="27.0139" width="27.63" height="23.3302" filterUnits="userSpaceOnUse" color-interpolation-filters="sRGB">
<feFlood flood-opacity="0" result="BackgroundImageFix"/>
<feBlend mode="normal" in="SourceGraphic" in2="BackgroundImageFix" result="shape"/>
<feColorMatrix in="SourceAlpha" type="matrix" values="0 0 0 0 0 0 0 0 0 0 0 0 0 0 0 0 0 0 127 0" result="hardAlpha"/>
<feOffset dx="1" dy="1"/>
<feGaussianBlur stdDeviation="0.5"/>
<feComposite in2="hardAlpha" operator="arithmetic" k2="-1" k3="1"/>
<feColorMatrix type="matrix" values="0 0 0 0 0.454902 0 0 0 0 0.121569 0 0 0 0 0.94902 0 0 0 0.6 0"/>
<feBlend mode="normal" in2="shape" result="effect1_innerShadow"/>
</filter>
<filter id="filter7_i" x="48.8318" y="51.6469" width="20.2797" height="30.5036" filterUnits="userSpaceOnUse" color-interpolation-filters="sRGB">
<feFlood flood-opacity="0" result="BackgroundImageFix"/>
<feBlend mode="normal" in="SourceGraphic" in2="BackgroundImageFix" result="shape"/>
<feColorMatrix in="SourceAlpha" type="matrix" values="0 0 0 0 0 0 0 0 0 0 0 0 0 0 0 0 0 0 127 0" result="hardAlpha"/>
<feOffset dx="1" dy="1"/>
<feGaussianBlur stdDeviation="0.5"/>
<feComposite in2="hardAlpha" operator="arithmetic" k2="-1" k3="1"/>
<feColorMatrix type="matrix" values="0 0 0 0 0.454902 0 0 0 0 0.121569 0 0 0 0 0.94902 0 0 0 0.6 0"/>
<feBlend mode="normal" in2="shape" result="effect1_innerShadow"/>
</filter>
<filter id="filter8_i" x="36.6035" y="52.6135" width="14.4363" height="6.21165" filterUnits="userSpaceOnUse" color-interpolation-filters="sRGB">
<feFlood flood-opacity="0" result="BackgroundImageFix"/>
<feBlend mode="normal" in="SourceGraphic" in2="BackgroundImageFix" result="shape"/>
<feColorMatrix in="SourceAlpha" type="matrix" values="0 0 0 0 0 0 0 0 0 0 0 0 0 0 0 0 0 0 127 0" result="hardAlpha"/>
<feOffset dx="1" dy="1"/>
<feGaussianBlur stdDeviation="0.5"/>
<feComposite in2="hardAlpha" operator="arithmetic" k2="-1" k3="1"/>
<feColorMatrix type="matrix" values="0 0 0 0 0.454902 0 0 0 0 0.121569 0 0 0 0 0.94902 0 0 0 0.6 0"/>
<feBlend mode="normal" in2="shape" result="effect1_innerShadow"/>
</filter>
<clipPath id="clip0">
<rect width="52" height="73.5172" fill="white" transform="translate(28 15)"/>
</clipPath>
</defs>
</svg>
